<svg width="28" height="40" viewBox="0 0 28 40" fill="none" xmlns="http://www.w3.org/2000/svg">
<rect width="10" height="11" transform="matrix(-1 0 0 1 19 27)" fill="#2FD886"/>
<g clip-path="url(#clip0_1135_22492)">
<path d="M7.00098 21L7.00098 35C7.00098 36.3261 7.52776 37.5979 8.46544 38.5355C9.40312 39.4732 10.6749 40 12.001 40H16.001C17.3271 40 18.5988 39.4732 19.5365 38.5355C20.4742 37.5979 21.001 36.3261 21.001 35V21C21.001 20.3434 20.8716 19.6932 20.6204 19.0866C20.3691 18.48 20.0008 17.9288 19.5365 17.4645C19.0722 17.0002 18.521 16.6319 17.9144 16.3806C17.3078 16.1293 16.6576 16 16.001 16H12.001C11.3444 16 10.6942 16.1293 10.0876 16.3806C9.48093 16.6319 8.92974 17.0002 8.46544 17.4645C8.00115 17.9288 7.63285 18.48 7.38158 19.0866C7.13031 19.6932 7.00098 20.3434 7.00098 21ZM16.001 18C16.7966 18 17.5597 18.3161 18.1223 18.8787C18.6849 19.4413 19.001 20.2044 19.001 21V35C19.001 35.7956 18.6849 36.5587 18.1223 37.1213C17.5597 37.6839 16.7966 38 16.001 38H12.001C11.2053 38 10.4423 37.6839 9.87966 37.1213C9.31705 36.5587 9.00098 35.7956 9.00098 35L9.00098 21C9.00098 20.2044 9.31705 19.4413 9.87966 18.8787C10.4423 18.3161 11.2053 18 12.001 18H16.001Z" fill="#374957"/>
</g>
<path d="M4.12713 10.1293C3.5116 10.1293 2.9607 10.0138 2.47443 9.78303C1.98816 9.54912 1.60192 9.22905 1.3157 8.8228C1.03255 8.41655 0.881747 7.95182 0.863281 7.42862H2.52521C2.55599 7.81641 2.72372 8.1334 3.02841 8.37962C3.3331 8.62275 3.69934 8.74432 4.12713 8.74432C4.46259 8.74432 4.76113 8.66738 5.02273 8.51349C5.28433 8.35961 5.49053 8.14571 5.64134 7.8718C5.79214 7.59789 5.866 7.28551 5.86293 6.93466C5.866 6.57765 5.7906 6.26065 5.63672 5.98366C5.48284 5.70668 5.27202 5.4897 5.00426 5.33274C4.73651 5.1727 4.42874 5.09268 4.08097 5.09268C3.79782 5.08961 3.51929 5.14193 3.24538 5.24964C2.97147 5.35736 2.7545 5.49893 2.59446 5.67436L1.04794 5.42045L1.5419 0.545454H7.02628V1.97656H2.95916L2.68679 4.48331H2.74219C2.91761 4.27711 3.16536 4.1063 3.48544 3.97088C3.80552 3.83239 4.15637 3.76314 4.538 3.76314C5.11044 3.76314 5.62133 3.89856 6.07067 4.16939C6.52001 4.43714 6.87393 4.80646 7.13246 5.27734C7.39098 5.74822 7.52024 6.28681 7.52024 6.89311C7.52024 7.51787 7.37559 8.07493 7.08629 8.56428C6.80007 9.05054 6.40152 9.43371 5.89062 9.71378C5.38281 9.99077 4.79498 10.1293 4.12713 10.1293ZM12.5614 10.18C11.8013 10.18 11.1488 9.98769 10.604 9.60298C10.0624 9.2152 9.64536 8.65661 9.35298 7.9272C9.06368 7.19472 8.91903 6.31297 8.91903 5.28196C8.92211 4.25095 9.0683 3.37382 9.3576 2.65057C9.64998 1.92424 10.067 1.37026 10.6087 0.988636C11.1534 0.607007 11.8043 0.416193 12.5614 0.416193C13.3185 0.416193 13.9695 0.607007 14.5142 0.988636C15.0589 1.37026 15.476 1.92424 15.7653 2.65057C16.0576 3.37689 16.2038 4.25402 16.2038 5.28196C16.2038 6.31605 16.0576 7.19934 15.7653 7.93182C15.476 8.66122 15.0589 9.21828 14.5142 9.60298C13.9725 9.98769 13.3216 10.18 12.5614 10.18ZM12.5614 8.73509C13.1523 8.73509 13.6186 8.44425 13.9602 7.86257C14.3049 7.27782 14.4773 6.41761 14.4773 5.28196C14.4773 4.53101 14.3988 3.90009 14.2418 3.3892C14.0849 2.87831 13.8633 2.49361 13.5771 2.23509C13.2908 1.97348 12.9523 1.84268 12.5614 1.84268C11.9736 1.84268 11.5089 2.13506 11.1673 2.71981C10.8256 3.30149 10.6533 4.15554 10.6502 5.28196C10.6471 6.03598 10.7225 6.66998 10.8764 7.18395C11.0334 7.69792 11.255 8.0857 11.5412 8.3473C11.8274 8.60582 12.1675 8.73509 12.5614 8.73509ZM22.7927 8.22727V7.72869C22.7927 7.36245 22.8696 7.02545 23.0235 6.71768C23.1805 6.40992 23.4082 6.16217 23.7068 5.97443C24.0053 5.78669 24.3669 5.69283 24.7916 5.69283C25.2287 5.69283 25.5949 5.78669 25.8904 5.97443C26.1858 6.15909 26.4089 6.4053 26.5597 6.71307C26.7136 7.02083 26.7906 7.35937 26.7906 7.72869V8.22727C26.7906 8.59351 26.7136 8.93052 26.5597 9.23828C26.4059 9.54605 26.1797 9.7938 25.8811 9.98153C25.5857 10.1693 25.2225 10.2631 24.7916 10.2631C24.3608 10.2631 23.9961 10.1693 23.6975 9.98153C23.399 9.7938 23.1728 9.54605 23.0189 9.23828C22.8681 8.93052 22.7927 8.59351 22.7927 8.22727ZM23.9976 7.72869V8.22727C23.9976 8.47041 24.0561 8.69354 24.173 8.89666C24.29 9.09979 24.4962 9.20135 24.7916 9.20135C25.0902 9.20135 25.2948 9.10133 25.4056 8.90128C25.5195 8.69815 25.5764 8.47348 25.5764 8.22727V7.72869C25.5764 7.48248 25.5226 7.25781 25.4149 7.05469C25.3071 6.84848 25.0994 6.74538 24.7916 6.74538C24.5023 6.74538 24.2977 6.84848 24.1776 7.05469C24.0576 7.25781 23.9976 7.48248 23.9976 7.72869ZM17.9869 2.81676V2.31818C17.9869 1.94886 18.0654 1.61032 18.2224 1.30256C18.3794 0.994791 18.6071 0.748579 18.9056 0.56392C19.2042 0.376183 19.5658 0.282315 19.9905 0.282315C20.4244 0.282315 20.7892 0.376183 21.0846 0.56392C21.3831 0.748579 21.6078 0.994791 21.7586 1.30256C21.9094 1.61032 21.9848 1.94886 21.9848 2.31818V2.81676C21.9848 3.18608 21.9079 3.52462 21.754 3.83239C21.6032 4.13707 21.3785 4.38175 21.08 4.56641C20.7815 4.75107 20.4183 4.84339 19.9905 4.84339C19.5566 4.84339 19.1903 4.75107 18.8918 4.56641C18.5963 4.38175 18.3717 4.13553 18.2178 3.82777C18.0639 3.52 17.9869 3.183 17.9869 2.81676ZM19.2011 2.31818V2.81676C19.2011 3.06297 19.258 3.28764 19.3719 3.49077C19.4888 3.69081 19.695 3.79084 19.9905 3.79084C20.286 3.79084 20.4891 3.69081 20.5999 3.49077C20.7137 3.28764 20.7707 3.06297 20.7707 2.81676V2.31818C20.7707 2.07197 20.7168 1.8473 20.6091 1.64418C20.5014 1.43797 20.2952 1.33487 19.9905 1.33487C19.6981 1.33487 19.4935 1.43797 19.3765 1.64418C19.2596 1.85038 19.2011 2.07505 19.2011 2.31818ZM18.5132 10L25.0132 0.545454H26.1673L19.6673 10H18.5132Z" fill="#2C384F"/>
<defs>
<clipPath id="clip0_1135_22492">
<rect width="24" height="24" fill="white" transform="translate(2 40) rotate(-90)"/>
</clipPath>
</defs>
</svg>
