<?xml version="1.0" encoding="utf-8"?>
<!-- Generator: Adobe Illustrator 25.4.1, SVG Export Plug-In . SVG Version: 6.00 Build 0)  -->
<svg version="1.1" id="Capa_1" xmlns:svgjs="http://svgjs.com/svgjs"
	 xmlns="http://www.w3.org/2000/svg" xmlns:xlink="http://www.w3.org/1999/xlink" x="0px" y="0px" viewBox="0 0 512 512"
	 style="enable-background:new 0 0 512 512;" xml:space="preserve">
<g transform="matrix(1,0,0,1,0,0)">
	<path d="M256,16C157.3,16,80,96.8,80,200c0,113.9,163.3,286.2,170.2,293.5c3.1,3.2,8.1,3.3,11.3,0.3c0.1-0.1,0.2-0.2,0.3-0.3
		c7-7.3,170.2-179.6,170.2-293.5C432,96.8,354.7,16,256,16z M256,476.2C226.7,444.2,96,296,96,200c0-95.8,68.8-168,160-168
		s160,72.2,160,168C416,295.9,285.3,444.2,256,476.2z"/>
	<path d="M256,56c-75.1,0-136,60.9-136,136s60.9,136,136,136s136-60.9,136-136C391.9,116.9,331.1,56.1,256,56z M256,312
		c-66.3,0-120-53.7-120-120S189.7,72,256,72s120,53.7,120,120C375.9,258.2,322.2,311.9,256,312z"/>
	<g>
		<path d="M227.7,114.7h35.8c12.1,0,21.1,3.2,27.2,9.7c6,6.5,9.1,16,9.1,28.5v15.2c0,12.5-3,22-9.1,28.5c-6,6.5-15.1,9.7-27.2,9.7
			H252v62.9h-24.3V114.7z M263.5,184.3c4,0,7-1.1,8.9-3.3s3-6,3-11.3v-18.3c0-5.3-1-9.1-3-11.3s-5-3.3-8.9-3.3H252v47.5H263.5z"/>
	</g>
</g>
</svg>
