<?xml version="1.0" encoding="utf-8"?>
<!-- Generator: Adobe Illustrator 25.4.1, SVG Export Plug-In . SVG Version: 6.00 Build 0)  -->
<svg version="1.1" id="Capa_1" xmlns:svgjs="http://svgjs.com/svgjs"
	 xmlns="http://www.w3.org/2000/svg" xmlns:xlink="http://www.w3.org/1999/xlink" x="0px" y="0px" viewBox="0 0 512 512"
	 style="enable-background:new 0 0 512 512;" xml:space="preserve">
<style type="text/css">
	.st0{fill:#FFFFFF;}
	.st1{fill:#3FBDEF;}
	.st2{fill:#424442;}
</style>
<g transform="matrix(1,0,0,1,0,0)">
	<circle class="st0" cx="256.5" cy="191.5" r="140.9"/>
	<path class="st1" d="M256,16C157.3,16,80,96.8,80,200c0,113.9,163.3,286.2,170.2,293.5c3.1,3.2,8.1,3.3,11.3,0.3
		c0.1-0.1,0.2-0.2,0.3-0.3c7-7.3,170.2-179.6,170.2-293.5C432,96.8,354.7,16,256,16z M256,328c-75.1,0-136-60.9-136-136
		S180.9,56,256,56c75.1,0.1,135.9,60.9,136,136C392,267.1,331.1,328,256,328z"/>
	<g>
		<path class="st2" d="M227.7,114.7h35.8c12.1,0,21.1,3.2,27.2,9.7c6,6.5,9.1,16,9.1,28.5v15.2c0,12.5-3,22-9.1,28.5
			c-6,6.5-15.1,9.7-27.2,9.7H252v62.9h-24.3V114.7z M263.5,184.3c4,0,7-1.1,8.9-3.3s3-6,3-11.3v-18.3c0-5.3-1-9.1-3-11.3
			s-5-3.3-8.9-3.3H252v47.5H263.5z"/>
	</g>
</g>
<image style="overflow:visible;" width="149" height="108" xlink:href="a228957d-08dd-4a75-ac74-0b4c00fbbd1f.jpg"  transform="matrix(4.2339 0 0 4.2339 -769.2857 44.3672)">
</image>
</svg>
