<?xml version="1.0" encoding="utf-8"?>
<!-- Generator: Adobe Illustrator 25.0.1, SVG Export Plug-In . SVG Version: 6.00 Build 0)  -->
<svg version="1.1" id="Capa_1" xmlns="http://www.w3.org/2000/svg" xmlns:xlink="http://www.w3.org/1999/xlink" x="0px" y="0px"
	 viewBox="0 0 70.87 70.87" style="enable-background:new 0 0 70.87 70.87;" xml:space="preserve">
<style type="text/css">
	.st0{fill:#95C11F;}
	.st1{fill:#FFFFFF;}
</style>
<circle class="st0" cx="35.43" cy="35.43" r="35.43"/>
<g>
	<path class="st1" d="M24.2,50.15V20.72h11.1c1.95,0,3.45,0.09,4.48,0.28c1.45,0.24,2.66,0.7,3.63,1.38
		c0.98,0.68,1.76,1.62,2.36,2.84c0.6,1.22,0.89,2.56,0.89,4.02c0,2.5-0.8,4.62-2.39,6.35c-1.59,1.73-4.47,2.6-8.63,2.6H28.1v11.97
		H24.2z M28.1,34.71h7.61c2.52,0,4.3-0.47,5.36-1.41c1.06-0.94,1.59-2.26,1.59-3.95c0-1.23-0.31-2.29-0.93-3.16
		c-0.62-0.88-1.44-1.46-2.46-1.74c-0.66-0.17-1.87-0.26-3.63-0.26H28.1V34.71z"/>
</g>
</svg>
