<svg width="36" height="36" viewBox="0 0 36 36" fill="none" xmlns="http://www.w3.org/2000/svg">
<g clip-path="url(#clip0_66_272)">
<path d="M18 36C27.9411 36 36 27.9411 36 18C36 8.05887 27.9411 0 18 0C8.05887 0 0 8.05887 0 18C0 27.9411 8.05887 36 18 36Z" fill="url(#paint0_radial_66_272)" fill-opacity="0.67"/>
<path d="M18 32.5C26.0081 32.5 32.5 26.0081 32.5 18C32.5 9.99187 26.0081 3.5 18 3.5C9.99187 3.5 3.5 9.99187 3.5 18C3.5 26.0081 9.99187 32.5 18 32.5Z" fill="#0068A3" stroke="white"/>
<path d="M25 17.7101V22.9113C25 24.2826 23.8883 25.3943 22.517 25.3943H13.483C12.1117 25.3943 11 24.2826 11 22.9113V17.7101C11 16.2858 12.1546 15.1311 13.5789 15.1311H22.4211C23.8454 15.1311 25 16.2858 25 17.7101Z" fill="#F8F9FF" stroke="#F8F9FF" stroke-width="1.5"/>
<path d="M18.183 19.2234C17.8899 19.2234 17.6088 19.3316 17.4015 19.524C17.1942 19.7165 17.0778 19.9776 17.0778 20.2498V22.3024C17.0778 22.5746 17.1942 22.8356 17.4015 23.0281C17.6088 23.2206 17.8899 23.3287 18.183 23.3287C18.4762 23.3287 18.7573 23.2206 18.9646 23.0281C19.1718 22.8356 19.2883 22.5746 19.2883 22.3024V20.2498C19.2883 19.9776 19.1718 19.7165 18.9646 19.524C18.7573 19.3316 18.4762 19.2234 18.183 19.2234Z" fill="#0068A3"/>
<ellipse cx="18.1828" cy="19.5652" rx="1.84211" ry="1.71053" fill="#0068A3"/>
<path d="M22.7882 14.7895H22.4689M13.2092 14.7895C14.2164 14.7895 13.5777 14.7895 13.5777 14.7895M22.4689 14.7895C22.4689 12.0526 20.5777 10 17.9987 10C15.4198 10 13.5777 12.0526 13.5777 14.7895M22.4689 14.7895H13.5777" stroke="#F8F9FF" stroke-width="2"/>
</g>
<defs>
<radialGradient id="paint0_radial_66_272" cx="0" cy="0" r="1" gradientUnits="userSpaceOnUse" gradientTransform="translate(18 18) rotate(90) scale(18)">
<stop offset="0.802083" stop-color="#3D3D3D" stop-opacity="0.51"/>
<stop offset="0.895833" stop-color="#1D1D1D" stop-opacity="0.56"/>
<stop offset="1" stop-color="#8A8A8A" stop-opacity="0.57"/>
</radialGradient>
<clipPath id="clip0_66_272">
<rect width="36" height="36" fill="white"/>
</clipPath>
</defs>
</svg>
