<?xml version="1.0" encoding="utf-8"?>
<!-- Generator: Adobe Illustrator 26.1.0, SVG Export Plug-In . SVG Version: 6.00 Build 0)  -->
<svg version="1.1" id="Capa_1" xmlns="http://www.w3.org/2000/svg" xmlns:xlink="http://www.w3.org/1999/xlink" x="0px" y="0px"
	 viewBox="0 0 96 32" style="enable-background:new 0 0 96 32;" xml:space="preserve">
<style type="text/css">
	.st0{fill:#215E84;}
	.st1{fill:#00A4B9;}
	.st2{fill:#00B3DA;}
</style>
<g>
	<path class="st0" d="M35,14.1c-3.9,0-7,3.1-7,7c0,3.9,3.1,7,7,7c3.9,0,7-3.1,7-7C42,17.2,38.9,14.1,35,14.1 M35,25.2
		c-2.3,0-4.2-1.9-4.2-4.2c0-2.3,1.9-4.2,4.2-4.2c2.3,0,4.2,1.9,4.2,4.2C39.2,23.4,37.3,25.2,35,25.2"/>
	<path class="st0" d="M11.5,19.1L11.5,19.1H8.9v2.5h2.5v0c0,0,0,0.7,0,0.7c-0.6,1.6-2.1,2.8-3.9,2.8c-2.3,0-4.2-1.9-4.2-4.2
		s1.9-4.2,4.2-4.2c1,0,1.9,0.3,2.6,0.9l2-2.1c-1.2-1-2.8-1.7-4.5-1.7c-3.9,0-7,3.1-7,7c0,3.9,3.1,7,7,7c1.5,0,2.8-0.5,4-1.2v1.2
		l2.6,0v-5.8v0v-3.1v-0.1H14L11.5,19.1z"/>
	<polygon class="st0" points="92.9,14.1 92.9,19.1 87.9,19.1 87.9,14.1 85.3,14.1 85.3,28.1 87.9,28.1 87.9,21.6 92.9,21.6 
		92.9,28.1 95.5,28.1 95.5,14.1 	"/>
	<polygon class="st0" points="58.6,14.1 58.6,16.6 58.6,19.8 58.6,22.3 58.6,25.5 58.6,28.1 61.1,28.1 68.7,28.1 68.7,25.5 
		61.1,25.5 61.1,21.7 66.3,21.7 66.3,19.1 61.1,19.1 61.1,16.6 68.7,16.6 68.7,14.1 58.6,14.1 	"/>
	<path class="st0" d="M78.3,16.9c0.9,0,1.8,0.3,2.5,0.8l2-2c-1.2-1-2.8-1.6-4.5-1.6c-3.9,0-7,3.1-7,7c0,3.9,3.1,7,7,7
		c1.7,0,3.3-0.6,4.5-1.6l-2-2c-0.7,0.5-1.5,0.8-2.5,0.8c-2.3,0-4.1-1.9-4.1-4.1C74.1,18.8,76,16.9,78.3,16.9"/>
	<g>
		<polygon class="st0" points="43.3,16.6 48.4,16.6 48.4,28.1 50.9,28.1 50.9,16.6 56,16.6 56,14.1 43.3,14.1 		"/>
		<rect x="40.8" y="9" class="st1" width="17.8" height="2.5"/>
		<rect x="38.2" y="3.9" class="st2" width="22.9" height="2.5"/>
	</g>
	<polygon class="st0" points="16.6,14.1 16.6,16.6 16.6,19.8 16.6,22.3 16.6,25.5 16.6,28.1 19.1,28.1 26.7,28.1 26.7,25.5 
		19.1,25.5 19.1,21.7 24.3,21.7 24.3,19.1 19.1,19.1 19.1,16.6 26.7,16.6 26.7,14.1 16.6,14.1 	"/>
</g>
</svg>
