<svg width="14" height="24" viewBox="0 0 14 24" fill="none" xmlns="http://www.w3.org/2000/svg">
<rect width="10" height="10" transform="matrix(-1 0 0 1 12 12)" fill="#2FD886"/>
<path d="M0.000976563 5L0.000976563 19C0.000976563 20.3261 0.527761 21.5979 1.46544 22.5355C2.40312 23.4732 3.67489 24 5.00098 24H9.00098C10.3271 24 11.5988 23.4732 12.5365 22.5355C13.4742 21.5979 14.001 20.3261 14.001 19L14.001 5C14.001 4.34339 13.8716 3.69321 13.6204 3.08658C13.3691 2.47995 13.0008 1.92876 12.5365 1.46447C12.0722 1.00017 11.521 0.631876 10.9144 0.380602C10.3078 0.129328 9.65759 0 9.00098 0H5.00098C4.34437 0 3.69419 0.129328 3.08756 0.380602C2.48093 0.631876 1.92974 1.00017 1.46544 1.46447C1.00115 1.92876 0.632852 2.47995 0.381579 3.08658C0.130305 3.69321 0.000976563 4.34339 0.000976563 5ZM9.00098 2C9.79663 2 10.5597 2.31607 11.1223 2.87868C11.6849 3.44129 12.001 4.20435 12.001 5L12.001 19C12.001 19.7956 11.6849 20.5587 11.1223 21.1213C10.5597 21.6839 9.79663 22 9.00098 22H5.00098C4.20533 22 3.44227 21.6839 2.87966 21.1213C2.31705 20.5587 2.00098 19.7956 2.00098 19L2.00098 5C2.00098 4.20435 2.31705 3.44129 2.87966 2.87868C3.44227 2.31607 4.20533 2 5.00098 2H9.00098Z" fill="#374957"/>
</svg>
