<svg width="24" height="24" viewBox="0 0 24 24" fill="none" xmlns="http://www.w3.org/2000/svg">
<rect width="11" height="20" transform="matrix(-1 0 0 1 17 2)" fill="#2FD886"/>
<g clip-path="url(#clip0_2354_17633)">
<path d="M5.00098 5L5.00098 19C5.00098 20.3261 5.52776 21.5979 6.46544 22.5355C7.40312 23.4732 8.67489 24 10.001 24H14.001C15.3271 24 16.5988 23.4732 17.5365 22.5355C18.4742 21.5979 19.001 20.3261 19.001 19V5C19.001 4.34339 18.8716 3.69321 18.6204 3.08658C18.3691 2.47995 18.0008 1.92876 17.5365 1.46447C17.0722 1.00017 16.521 0.631876 15.9144 0.380602C15.3078 0.129328 14.6576 0 14.001 0H10.001C9.34437 0 8.69419 0.129328 8.08756 0.380602C7.48093 0.631876 6.92974 1.00017 6.46544 1.46447C6.00115 1.92876 5.63285 2.47995 5.38158 3.08658C5.13031 3.69321 5.00098 4.34339 5.00098 5ZM14.001 2C14.7966 2 15.5597 2.31607 16.1223 2.87868C16.6849 3.44129 17.001 4.20435 17.001 5V19C17.001 19.7956 16.6849 20.5587 16.1223 21.1213C15.5597 21.6839 14.7966 22 14.001 22H10.001C9.20533 22 8.44227 21.6839 7.87966 21.1213C7.31705 20.5587 7.00098 19.7956 7.00098 19L7.00098 5C7.00098 4.20435 7.31705 3.44129 7.87966 2.87868C8.44227 2.31607 9.20533 2 10.001 2H14.001Z" fill="#374957"/>
</g>
<defs>
<clipPath id="clip0_2354_17633">
<rect width="24" height="24" fill="white" transform="translate(0 24) rotate(-90)"/>
</clipPath>
</defs>
</svg>
