<svg width="16" height="16" viewBox="0 0 16 16" fill="none" xmlns="http://www.w3.org/2000/svg">
<path d="M14.6664 1.33356C14.3539 1.02111 13.93 0.845581 13.4881 0.845581C13.0461 0.845581 12.6223 1.02111 12.3097 1.33356L7.99974 5.64356L3.68975 1.33356C3.37541 1.02996 2.95441 0.861971 2.51742 0.865769C2.08042 0.869566 1.6624 1.04485 1.35339 1.35386C1.04438 1.66287 0.869095 2.0809 0.865297 2.51789C0.8615 2.95488 1.02949 3.37589 1.33309 3.69022L5.64308 8.00022L1.33309 12.3102C1.02949 12.6246 0.8615 13.0456 0.865297 13.4826C0.869095 13.9196 1.04438 14.3376 1.35339 14.6466C1.6624 14.9556 2.08042 15.1309 2.51742 15.1347C2.95441 15.1385 3.37541 14.9705 3.68975 14.6669L7.99974 10.3569L12.3097 14.6669C12.6241 14.9705 13.0451 15.1385 13.4821 15.1347C13.9191 15.1309 14.3371 14.9556 14.6461 14.6466C14.9551 14.3376 15.1304 13.9196 15.1342 13.4826C15.138 13.0456 14.97 12.6246 14.6664 12.3102L10.3564 8.00022L14.6664 3.69022C14.9788 3.37768 15.1544 2.95383 15.1544 2.51189C15.1544 2.06995 14.9788 1.6461 14.6664 1.33356Z" fill="#FFF"/>
</svg>
