<svg width="148" height="41" viewBox="0 0 148 41" fill="none" xmlns="http://www.w3.org/2000/svg">
<rect y="3" width="148" height="35" rx="10" fill="#2FD886"/>
<g clip-path="url(#clip0_1150_16921)">
<path d="M38.7067 24.824C38.5192 24.6366 38.2649 24.5312 37.9997 24.5312C37.7346 24.5312 37.4802 24.6366 37.2927 24.824L31.6657 30.452L28.9777 27.799C28.7921 27.6087 28.5384 27.5 28.2726 27.4967C28.0068 27.4934 27.7505 27.5959 27.5602 27.7815C27.3699 27.9672 27.2612 28.2208 27.2579 28.4867C27.2546 28.7525 27.3571 29.0087 27.5427 29.199L30.2867 31.899C30.4588 32.0846 30.6667 32.2334 30.8979 32.3365C31.129 32.4397 31.3786 32.4949 31.6317 32.499H31.6647C31.9128 32.4999 32.1585 32.4514 32.3877 32.3565C32.6169 32.2615 32.8249 32.122 32.9997 31.946L38.7067 26.238C38.8942 26.0505 38.9995 25.7962 38.9995 25.531C38.9995 25.2659 38.8942 25.0116 38.7067 24.824Z" fill="white"/>
<path d="M26.09 30.4584C24.159 30.282 22.321 29.5479 20.7997 28.3457C19.2784 27.1435 18.1395 25.5249 17.5215 23.687C16.9035 21.8491 16.8332 19.8712 17.3191 17.994C17.8049 16.1169 18.8261 14.4215 20.2582 13.1143C21.6902 11.807 23.4715 10.9443 25.385 10.6312C27.2986 10.318 29.2619 10.5679 31.036 11.3505C32.81 12.1331 34.3183 13.4146 35.3772 15.0389C36.4361 16.6632 36.9999 18.5604 37 20.4994C37 20.8064 36.985 21.1104 36.959 21.4104C36.9468 21.5415 36.9605 21.6738 36.9995 21.7995C37.0385 21.9253 37.102 22.0421 37.1863 22.1433C37.2706 22.2445 37.374 22.328 37.4906 22.3891C37.6073 22.4503 37.7348 22.4877 37.866 22.4994C37.9971 22.5126 38.1295 22.4995 38.2554 22.4608C38.3813 22.4221 38.4982 22.3587 38.5993 22.2742C38.7004 22.1897 38.7836 22.0858 38.844 21.9688C38.9043 21.8517 38.9407 21.7237 38.951 21.5924C38.983 21.2294 39 20.8664 39 20.4994C38.9999 18.1725 38.3233 15.8958 37.0525 13.9466C35.7817 11.9973 33.9717 10.4596 31.8427 9.52055C29.7137 8.58152 27.3576 8.28172 25.0613 8.65765C22.765 9.03359 20.6275 10.069 18.909 11.6379C17.1906 13.2068 15.9654 15.2415 15.3826 17.4942C14.7997 19.7469 14.8844 22.1205 15.6262 24.3259C16.3681 26.5314 17.7352 28.4736 19.5611 29.9161C21.3869 31.3585 23.5927 32.239 25.91 32.4504H26.001C26.2662 32.4622 26.5253 32.3682 26.7211 32.189C26.917 32.0098 27.0337 31.7601 27.0455 31.4949C27.0573 31.2297 26.9633 30.9706 26.7841 30.7748C26.6049 30.5789 26.3552 30.4622 26.09 30.4504V30.4584Z" fill="white"/>
<path d="M26.0006 15.5V20.086L23.2936 22.793C23.1981 22.8852 23.1219 22.9956 23.0695 23.1176C23.0171 23.2396 22.9895 23.3708 22.9883 23.5036C22.9872 23.6364 23.0125 23.768 23.0627 23.8909C23.113 24.0138 23.1873 24.1255 23.2812 24.2194C23.3751 24.3133 23.4867 24.3875 23.6096 24.4378C23.7325 24.4881 23.8642 24.5134 23.997 24.5122C24.1297 24.5111 24.261 24.4835 24.383 24.4311C24.505 24.3787 24.6153 24.3025 24.7076 24.207L27.7076 21.207C27.8951 21.0195 28.0005 20.7652 28.0006 20.5V15.5C28.0006 15.2348 27.8952 14.9804 27.7077 14.7929C27.5201 14.6054 27.2658 14.5 27.0006 14.5C26.7353 14.5 26.481 14.6054 26.2935 14.7929C26.1059 14.9804 26.0006 15.2348 26.0006 15.5Z" fill="white"/>
</g>
<path d="M60.6043 18.9102H58.2712C58.2286 18.6083 58.1416 18.3402 58.0102 18.1058C57.8788 17.8679 57.7101 17.6655 57.5041 17.4986C57.2982 17.3317 57.0602 17.2038 56.7903 17.1151C56.524 17.0263 56.2346 16.9819 55.9221 16.9819C55.3575 16.9819 54.8656 17.1222 54.4466 17.4027C54.0276 17.6797 53.7026 18.0845 53.4718 18.6172C53.241 19.1463 53.1256 19.7891 53.1256 20.5455C53.1256 21.3232 53.241 21.9766 53.4718 22.5057C53.7062 23.0348 54.0329 23.4343 54.4519 23.7042C54.871 23.9741 55.3557 24.109 55.9061 24.109C56.2151 24.109 56.5009 24.0682 56.7637 23.9865C57.0301 23.9048 57.2662 23.7859 57.4722 23.6296C57.6781 23.4698 57.8486 23.2763 57.9835 23.049C58.122 22.8217 58.2179 22.5625 58.2712 22.2713L60.6043 22.282C60.5439 22.7827 60.393 23.2656 60.1515 23.7308C59.9136 24.1925 59.5922 24.6062 59.1874 24.9719C58.7861 25.3342 58.3067 25.6218 57.7492 25.8349C57.1952 26.0444 56.5684 26.1491 55.8688 26.1491C54.8958 26.1491 54.0258 25.929 53.2587 25.4886C52.4953 25.0483 51.8916 24.4109 51.4477 23.5763C51.0073 22.7418 50.7872 21.7315 50.7872 20.5455C50.7872 19.3558 51.0109 18.3438 51.4583 17.5092C51.9058 16.6747 52.513 16.0391 53.2801 15.6023C54.0471 15.1619 54.91 14.9418 55.8688 14.9418C56.5009 14.9418 57.0869 15.0305 57.6266 15.2081C58.17 15.3857 58.6511 15.6449 59.0702 15.9858C59.4892 16.3232 59.8301 16.7369 60.0929 17.2269C60.3592 17.717 60.5297 18.2781 60.6043 18.9102ZM65.9123 26.1598C65.0849 26.1598 64.3694 25.984 63.7657 25.6325C63.1655 25.2773 62.7021 24.7837 62.3754 24.1516C62.0487 23.516 61.8853 22.7791 61.8853 21.9411C61.8853 21.0959 62.0487 20.3572 62.3754 19.7251C62.7021 19.0895 63.1655 18.5959 63.7657 18.2443C64.3694 17.8892 65.0849 17.7116 65.9123 17.7116C66.7397 17.7116 67.4535 17.8892 68.0537 18.2443C68.6574 18.5959 69.1226 19.0895 69.4493 19.7251C69.776 20.3572 69.9393 21.0959 69.9393 21.9411C69.9393 22.7791 69.776 23.516 69.4493 24.1516C69.1226 24.7837 68.6574 25.2773 68.0537 25.6325C67.4535 25.984 66.7397 26.1598 65.9123 26.1598ZM65.923 24.402C66.2994 24.402 66.6137 24.2955 66.8658 24.0824C67.1179 23.8658 67.3079 23.571 67.4358 23.1982C67.5672 22.8253 67.6329 22.4009 67.6329 21.9251C67.6329 21.4492 67.5672 21.0249 67.4358 20.652C67.3079 20.2791 67.1179 19.9844 66.8658 19.7678C66.6137 19.5511 66.2994 19.4428 65.923 19.4428C65.543 19.4428 65.2234 19.5511 64.9642 19.7678C64.7085 19.9844 64.515 20.2791 64.3836 20.652C64.2557 21.0249 64.1918 21.4492 64.1918 21.9251C64.1918 22.4009 64.2557 22.8253 64.3836 23.1982C64.515 23.571 64.7085 23.8658 64.9642 24.0824C65.2234 24.2955 65.543 24.402 65.923 24.402ZM73.684 21.2699V26H71.4148V17.8182H73.5775V19.2617H73.6733C73.8544 18.7859 74.1581 18.4094 74.5842 18.1325C75.0103 17.8519 75.527 17.7116 76.1343 17.7116C76.7025 17.7116 77.1978 17.8359 77.6204 18.0845C78.043 18.3331 78.3715 18.6882 78.6059 19.1499C78.8402 19.608 78.9574 20.1548 78.9574 20.7905V26H76.6883V21.1953C76.6918 20.6946 76.564 20.304 76.3047 20.0234C76.0455 19.7393 75.6886 19.5973 75.2341 19.5973C74.9287 19.5973 74.6588 19.663 74.4244 19.7944C74.1936 19.9258 74.0125 20.1175 73.8811 20.3697C73.7532 20.6183 73.6875 20.9183 73.684 21.2699ZM85.1457 17.8182V19.5227H80.096V17.8182H85.1457ZM81.2519 26V17.2269C81.2519 16.6339 81.3673 16.142 81.5981 15.7514C81.8325 15.3608 82.1521 15.0678 82.557 14.8725C82.9618 14.6772 83.4217 14.5795 83.9366 14.5795C84.2846 14.5795 84.6024 14.6062 84.89 14.6594C85.1812 14.7127 85.3979 14.7607 85.5399 14.8033L85.1351 16.5078C85.0463 16.4794 84.9362 16.4528 84.8048 16.4279C84.677 16.4031 84.5456 16.3906 84.4106 16.3906C84.0768 16.3906 83.8442 16.4688 83.7128 16.625C83.5815 16.7777 83.5158 16.9925 83.5158 17.2695V26H81.2519ZM86.532 26V17.8182H88.8012V26H86.532ZM87.6719 16.7635C87.3346 16.7635 87.0451 16.6516 86.8037 16.4279C86.5657 16.2006 86.4468 15.929 86.4468 15.6129C86.4468 15.3004 86.5657 15.0323 86.8037 14.8086C87.0451 14.5813 87.3346 14.4677 87.6719 14.4677C88.0093 14.4677 88.2969 14.5813 88.5348 14.8086C88.7763 15.0323 88.8971 15.3004 88.8971 15.6129C88.8971 15.929 88.7763 16.2006 88.5348 16.4279C88.2969 16.6516 88.0093 16.7635 87.6719 16.7635ZM90.6189 26V17.8182H92.8188V19.2457H92.9041C93.0532 18.7379 93.3036 18.3544 93.6551 18.0952C94.0067 17.8324 94.4115 17.701 94.8696 17.701C94.9833 17.701 95.1058 17.7081 95.2372 17.7223C95.3686 17.7365 95.484 17.756 95.5834 17.7809V19.7944C95.4769 19.7624 95.3295 19.734 95.1413 19.7092C94.9531 19.6843 94.7809 19.6719 94.6246 19.6719C94.2908 19.6719 93.9925 19.7447 93.7297 19.8903C93.4705 20.0323 93.2645 20.2312 93.1118 20.4869C92.9627 20.7425 92.8881 21.0373 92.8881 21.3711V26H90.6189ZM96.7566 26V17.8182H98.9193V19.2617H99.0151C99.1856 18.7823 99.4697 18.4041 99.8674 18.1271C100.265 17.8501 100.741 17.7116 101.295 17.7116C101.856 17.7116 102.334 17.8519 102.728 18.1325C103.122 18.4094 103.385 18.7859 103.516 19.2617H103.601C103.768 18.793 104.07 18.4183 104.507 18.1378C104.947 17.8537 105.468 17.7116 106.068 17.7116C106.831 17.7116 107.451 17.9549 107.927 18.4414C108.406 18.9244 108.646 19.6097 108.646 20.4975V26H106.382V20.945C106.382 20.4904 106.261 20.1495 106.02 19.9222C105.778 19.695 105.476 19.5813 105.114 19.5813C104.702 19.5813 104.381 19.7127 104.15 19.9755C103.919 20.2347 103.804 20.5774 103.804 21.0036V26H101.604V20.897C101.604 20.4957 101.489 20.1761 101.258 19.9382C101.03 19.7003 100.73 19.5813 100.357 19.5813C100.105 19.5813 99.8781 19.6452 99.6756 19.7731C99.4768 19.8974 99.3188 20.0732 99.2016 20.3004C99.0844 20.5241 99.0258 20.7869 99.0258 21.0888V26H96.7566ZM112.771 26.1545C112.249 26.1545 111.784 26.0639 111.376 25.8828C110.967 25.6982 110.644 25.4265 110.406 25.0678C110.172 24.7056 110.055 24.2546 110.055 23.7148C110.055 23.2603 110.138 22.8786 110.305 22.5696C110.472 22.2607 110.699 22.0121 110.987 21.8239C111.275 21.6357 111.601 21.4936 111.967 21.3977C112.336 21.3018 112.723 21.2344 113.128 21.1953C113.604 21.1456 113.988 21.0994 114.279 21.0568C114.57 21.0107 114.781 20.9432 114.913 20.8544C115.044 20.7656 115.11 20.6342 115.11 20.4602V20.4283C115.11 20.0909 115.003 19.8299 114.79 19.6452C114.581 19.4606 114.282 19.3683 113.895 19.3683C113.487 19.3683 113.162 19.4588 112.92 19.6399C112.679 19.8175 112.519 20.0412 112.441 20.3111L110.342 20.1406C110.449 19.6435 110.658 19.2138 110.971 18.8516C111.283 18.4858 111.686 18.2053 112.18 18.0099C112.677 17.8111 113.253 17.7116 113.906 17.7116C114.36 17.7116 114.795 17.7649 115.211 17.8714C115.63 17.978 116.001 18.1431 116.324 18.3668C116.651 18.5906 116.908 18.8782 117.097 19.2298C117.285 19.5778 117.379 19.995 117.379 20.4815V26H115.227V24.8654H115.163C115.032 25.1211 114.856 25.3466 114.636 25.5419C114.416 25.7337 114.151 25.8846 113.842 25.9947C113.533 26.1012 113.176 26.1545 112.771 26.1545ZM113.421 24.5884C113.755 24.5884 114.05 24.5227 114.305 24.3913C114.561 24.2564 114.762 24.0753 114.907 23.848C115.053 23.6207 115.126 23.3633 115.126 23.0756V22.2074C115.055 22.2536 114.957 22.2962 114.833 22.3352C114.712 22.3707 114.575 22.4045 114.423 22.4364C114.27 22.4648 114.117 22.4915 113.965 22.5163C113.812 22.5376 113.673 22.5572 113.549 22.5749C113.283 22.614 113.05 22.6761 112.851 22.7614C112.652 22.8466 112.498 22.962 112.388 23.1076C112.278 23.2496 112.223 23.4272 112.223 23.6403C112.223 23.9492 112.335 24.1854 112.558 24.3487C112.786 24.5085 113.073 24.5884 113.421 24.5884ZM122.154 26.1332C121.533 26.1332 120.97 25.9734 120.466 25.6538C119.965 25.3306 119.567 24.8565 119.273 24.2315C118.981 23.603 118.836 22.8324 118.836 21.9197C118.836 20.9822 118.987 20.2028 119.289 19.5813C119.59 18.9563 119.992 18.4893 120.492 18.1804C120.997 17.8679 121.549 17.7116 122.149 17.7116C122.607 17.7116 122.989 17.7898 123.294 17.946C123.603 18.0987 123.852 18.2905 124.04 18.5213C124.232 18.7486 124.377 18.9723 124.477 19.1925H124.546V15.0909H126.81V26H124.573V24.6896H124.477C124.37 24.9169 124.219 25.1424 124.024 25.3661C123.832 25.5863 123.582 25.7692 123.273 25.9148C122.968 26.0604 122.595 26.1332 122.154 26.1332ZM122.873 24.3274C123.239 24.3274 123.548 24.228 123.8 24.0291C124.056 23.8267 124.251 23.5444 124.386 23.1822C124.525 22.82 124.594 22.3956 124.594 21.9091C124.594 21.4226 124.527 21 124.392 20.6413C124.257 20.2827 124.061 20.0057 123.806 19.8104C123.55 19.6151 123.239 19.5174 122.873 19.5174C122.501 19.5174 122.186 19.6186 121.931 19.821C121.675 20.0234 121.481 20.304 121.35 20.6626C121.219 21.0213 121.153 21.4368 121.153 21.9091C121.153 22.3849 121.219 22.8058 121.35 23.1715C121.485 23.5337 121.678 23.8178 121.931 24.0238C122.186 24.2262 122.501 24.3274 122.873 24.3274ZM132.372 26.1598C131.545 26.1598 130.829 25.984 130.226 25.6325C129.625 25.2773 129.162 24.7837 128.835 24.1516C128.509 23.516 128.345 22.7791 128.345 21.9411C128.345 21.0959 128.509 20.3572 128.835 19.7251C129.162 19.0895 129.625 18.5959 130.226 18.2443C130.829 17.8892 131.545 17.7116 132.372 17.7116C133.2 17.7116 133.913 17.8892 134.514 18.2443C135.117 18.5959 135.583 19.0895 135.909 19.7251C136.236 20.3572 136.399 21.0959 136.399 21.9411C136.399 22.7791 136.236 23.516 135.909 24.1516C135.583 24.7837 135.117 25.2773 134.514 25.6325C133.913 25.984 133.2 26.1598 132.372 26.1598ZM132.383 24.402C132.759 24.402 133.074 24.2955 133.326 24.0824C133.578 23.8658 133.768 23.571 133.896 23.1982C134.027 22.8253 134.093 22.4009 134.093 21.9251C134.093 21.4492 134.027 21.0249 133.896 20.652C133.768 20.2791 133.578 19.9844 133.326 19.7678C133.074 19.5511 132.759 19.4428 132.383 19.4428C132.003 19.4428 131.683 19.5511 131.424 19.7678C131.168 19.9844 130.975 20.2791 130.844 20.652C130.716 21.0249 130.652 21.4492 130.652 21.9251C130.652 22.4009 130.716 22.8253 130.844 23.1982C130.975 23.571 131.168 23.8658 131.424 24.0824C131.683 24.2955 132.003 24.402 132.383 24.402Z" fill="white"/>
<defs>
<clipPath id="clip0_1150_16921">
<rect width="24" height="24" fill="white" transform="translate(15 8.5)"/>
</clipPath>
</defs>
</svg>
