<svg width="19" height="19" viewBox="0 0 19 19" fill="none" xmlns="http://www.w3.org/2000/svg">
<g clip-path="url(#clip0_1121_15319)">
<path d="M9.5 9.1001C10.39 9.1001 11.26 8.83618 12.0001 8.34171C12.7401 7.84725 13.3169 7.14444 13.6575 6.32218C13.9981 5.49991 14.0872 4.59511 13.9135 3.72219C13.7399 2.84928 13.3113 2.04746 12.682 1.41812C12.0526 0.788783 11.2508 0.360199 10.3779 0.186566C9.50499 0.0129324 8.60019 0.102047 7.77792 0.442642C6.95566 0.783236 6.25285 1.36001 5.75839 2.10003C5.26392 2.84005 5 3.71008 5 4.6001C5.00119 5.79321 5.47568 6.93711 6.31934 7.78076C7.16299 8.62442 8.30689 9.09891 9.5 9.1001ZM9.5 1.6001C10.0933 1.6001 10.6734 1.77605 11.1667 2.10569C11.6601 2.43534 12.0446 2.90387 12.2716 3.45205C12.4987 4.00023 12.5581 4.60343 12.4424 5.18537C12.3266 5.76731 12.0409 6.30186 11.6213 6.72142C11.2018 7.14098 10.6672 7.4267 10.0853 7.54246C9.50333 7.65821 8.90013 7.5988 8.35195 7.37174C7.80377 7.14468 7.33524 6.76016 7.00559 6.26681C6.67595 5.77346 6.5 5.19344 6.5 4.6001C6.5 3.80445 6.81607 3.04139 7.37868 2.47878C7.94129 1.91617 8.70435 1.6001 9.5 1.6001Z" fill="#374957"/>
<path d="M9.5 10.6006C7.7104 10.6026 5.99466 11.3144 4.72922 12.5798C3.46378 13.8452 2.75199 15.561 2.75 17.3506C2.75 17.5495 2.82902 17.7403 2.96967 17.8809C3.11032 18.0216 3.30109 18.1006 3.5 18.1006C3.69891 18.1006 3.88968 18.0216 4.03033 17.8809C4.17098 17.7403 4.25 17.5495 4.25 17.3506C4.25 15.9582 4.80312 14.6228 5.78769 13.6383C6.77226 12.6537 8.10761 12.1006 9.5 12.1006C10.8924 12.1006 12.2277 12.6537 13.2123 13.6383C14.1969 14.6228 14.75 15.9582 14.75 17.3506C14.75 17.5495 14.829 17.7403 14.9697 17.8809C15.1103 18.0216 15.3011 18.1006 15.5 18.1006C15.6989 18.1006 15.8897 18.0216 16.0303 17.8809C16.171 17.7403 16.25 17.5495 16.25 17.3506C16.248 15.561 15.5362 13.8452 14.2708 12.5798C13.0053 11.3144 11.2896 10.6026 9.5 10.6006Z" fill="#374957"/>
</g>
<defs>
<clipPath id="clip0_1121_15319">
<rect width="18" height="18" fill="white" transform="translate(0.5 0.100098)"/>
</clipPath>
</defs>
</svg>
