<svg width="36" height="36" viewBox="0 0 36 36" fill="none" xmlns="http://www.w3.org/2000/svg">
<circle cx="18" cy="18" r="18" fill="url(#paint0_radial_1641_16999)" fill-opacity="0.67"/>
<circle cx="18" cy="18" r="14.5" fill="#EA4335" stroke="white"/>
<path d="M15.4994 11.0952L15.6994 11.0955C15.6997 10.9262 15.6584 10.7595 15.5791 10.61C15.4999 10.4604 15.3851 10.3326 15.2449 10.2378C15.1047 10.143 14.9433 10.0841 14.775 10.0663C14.6067 10.0485 14.4366 10.0722 14.2796 10.1355L14.2796 10.1355L14.2749 10.1375C12.2987 10.9943 10.6782 12.5059 9.68635 14.4177C8.69446 16.3296 8.39177 18.5249 8.82926 20.6338C9.26675 22.7428 10.4177 24.6365 12.0882 25.9961C13.7588 27.3557 15.8468 28.098 18.0007 28.098C20.1545 28.098 22.2426 27.3557 23.9131 25.9961C25.5836 24.6365 26.7346 22.7428 27.1721 20.6338C27.6096 18.5249 27.3069 16.3296 26.315 14.4177C25.3231 12.5059 23.7026 10.9943 21.7265 10.1375L21.7265 10.1375L21.7223 10.1358C21.5651 10.0718 21.3946 10.0475 21.2258 10.0651C21.0569 10.0826 20.895 10.1415 20.7544 10.2365C20.6137 10.3315 20.4987 10.4597 20.4193 10.6097C20.3399 10.7598 20.2988 10.927 20.2994 11.0968L20.4994 11.096L20.2994 11.0992C20.3027 11.3039 20.3657 11.5032 20.4807 11.6726C20.5954 11.8413 20.7566 11.973 20.9448 12.0515C22.2761 12.6377 23.4019 13.6082 24.1778 14.8386C24.954 16.0696 25.3447 17.5044 25.2995 18.959L25.2994 18.9619C25.268 20.898 24.4688 22.7423 23.0776 24.0892C21.6863 25.436 19.8171 26.1749 17.881 26.1435C15.9449 26.1121 14.1006 25.3129 12.7538 23.9217C11.407 22.5304 10.668 20.6612 10.6994 18.7251L10.6994 18.7221C10.7013 17.3077 11.114 15.9243 11.8874 14.7401C12.6605 13.5564 13.7606 12.6227 15.0542 12.0523C15.2425 11.9733 15.4037 11.8413 15.5182 11.6723C15.6332 11.5027 15.6962 11.3032 15.6994 11.0983L15.4994 11.0952Z" fill="white" stroke="white" stroke-width="0.4"/>
<path d="M18.9827 9.83333C18.9827 9.29025 18.5424 8.85 17.9994 8.85C17.4563 8.85 17.016 9.29025 17.016 9.83333V14.8333C17.016 15.3764 17.4563 15.8167 17.9994 15.8167C18.5424 15.8167 18.9827 15.3764 18.9827 14.8333V9.83333Z" fill="white" stroke="white" stroke-width="0.3"/>
<path d="M8 27.7991L27.799 8.00008" stroke="white" stroke-width="2" stroke-linecap="round"/>
<defs>
<radialGradient id="paint0_radial_1641_16999" cx="0" cy="0" r="1" gradientUnits="userSpaceOnUse" gradientTransform="translate(18 18) rotate(90) scale(18 18)">
<stop offset="0.802083" stop-color="#3D3D3D" stop-opacity="0.51"/>
<stop offset="0.895833" stop-color="#1D1D1D" stop-opacity="0.56"/>
<stop offset="1" stop-color="#8A8A8A" stop-opacity="0.57"/>
</radialGradient>
</defs>
</svg>
