<svg width="24" height="25" viewBox="0 0 24 25" fill="none" xmlns="http://www.w3.org/2000/svg">
<g clip-path="url(#clip0_1918_20356)">
<path d="M14.9995 3.84852C15.0026 4.04738 15.0639 4.24099 15.1756 4.40551C15.2874 4.57004 15.4448 4.6983 15.6285 4.77452C17.2707 5.4971 18.6595 6.69402 19.6165 8.21162C20.5735 9.72922 21.0551 11.4982 20.9995 13.2915C20.9608 15.6785 19.9754 17.9523 18.2602 19.6127C16.545 21.2732 14.2404 22.1842 11.8535 22.1455C9.46654 22.1068 7.19274 21.1214 5.53229 19.4062C3.87185 17.691 2.96077 15.3865 2.99949 12.9995C3.0018 11.2557 3.51064 9.55019 4.46414 8.0902C5.41765 6.6302 6.77476 5.47864 8.37049 4.77552C8.55428 4.69884 8.7117 4.57019 8.82343 4.40535C8.93516 4.24051 8.99635 4.04663 8.99949 3.84752C8.99975 3.68373 8.95977 3.52238 8.88307 3.37766C8.80637 3.23294 8.69529 3.10927 8.55961 3.01753C8.42392 2.92579 8.26778 2.86878 8.1049 2.85152C7.94202 2.83425 7.7774 2.85726 7.62549 2.91852C5.30478 3.92466 3.40171 5.69986 2.23686 7.94511C1.072 10.1904 0.716521 12.7685 1.2303 15.2452C1.74408 17.7219 3.09573 19.9458 5.05756 21.5425C7.0194 23.1391 9.47156 24.0108 12.001 24.0108C14.5304 24.0108 16.9826 23.1391 18.9444 21.5425C20.9063 19.9458 22.2579 17.7219 22.7717 15.2452C23.2855 12.7685 22.93 10.1904 21.7651 7.94511C20.6003 5.69986 18.6972 3.92466 16.3765 2.91852C16.2244 2.85659 16.0593 2.83309 15.8959 2.8501C15.7326 2.86711 15.5759 2.92409 15.4398 3.01602C15.3037 3.10795 15.1923 3.232 15.1155 3.37719C15.0387 3.52239 14.9989 3.68427 14.9995 3.84852Z" fill="#374957"/>
<path d="M13 1C13 0.447715 12.5523 0 12 0C11.4477 0 11 0.447715 11 1V7C11 7.55228 11.4477 8 12 8C12.5523 8 13 7.55228 13 7V1Z" fill="#374957"/>
</g>
<path d="M23 3L2 24" stroke="#AA2323" stroke-width="2"/>
<defs>
<clipPath id="clip0_1918_20356">
<rect width="24" height="24" fill="white"/>
</clipPath>
</defs>
</svg>
