<svg width="148" height="41" viewBox="0 0 148 41" fill="none" xmlns="http://www.w3.org/2000/svg">
<rect y="3" width="148" height="35" rx="10" fill="#EA4335"/>
<g clip-path="url(#clip0_1182_15812)">
<path d="M55.7066 23.7938C55.5191 23.6063 55.2647 23.501 54.9996 23.501C54.7344 23.501 54.4801 23.6063 54.2926 23.7938L51.4996 26.5868L48.7066 23.7938C48.518 23.6116 48.2654 23.5108 48.0032 23.5131C47.741 23.5154 47.4902 23.6205 47.3048 23.8059C47.1194 23.9914 47.0142 24.2422 47.0119 24.5044C47.0096 24.7666 47.1104 25.0192 47.2926 25.2078L50.0856 28.0008L47.2926 30.7938C47.1971 30.886 47.1209 30.9963 47.0685 31.1183C47.0161 31.2404 46.9885 31.3716 46.9873 31.5043C46.9862 31.6371 47.0115 31.7688 47.0618 31.8917C47.1121 32.0146 47.1863 32.1263 47.2802 32.2201C47.3741 32.314 47.4857 32.3883 47.6086 32.4386C47.7315 32.4889 47.8632 32.5142 47.996 32.513C48.1288 32.5118 48.26 32.4843 48.382 32.4319C48.504 32.3794 48.6143 32.3033 48.7066 32.2078L51.4996 29.4148L54.2926 32.2078C54.4812 32.3899 54.7338 32.4907 54.996 32.4884C55.2582 32.4861 55.509 32.381 55.6944 32.1956C55.8798 32.0102 55.985 31.7593 55.9873 31.4972C55.9895 31.235 55.8887 30.9824 55.7066 30.7938L52.9136 28.0008L55.7066 25.2078C55.8941 25.0202 55.9994 24.7659 55.9994 24.5008C55.9994 24.2356 55.8941 23.9813 55.7066 23.7938Z" fill="white"/>
<path d="M44 30.5C42.0222 30.5 40.0888 29.9135 38.4443 28.8147C36.7998 27.7159 35.5181 26.1541 34.7612 24.3268C34.0043 22.4996 33.8063 20.4889 34.1922 18.5491C34.578 16.6093 35.5304 14.8275 36.9289 13.4289C38.3275 12.0304 40.1093 11.078 42.0491 10.6922C43.9889 10.3063 45.9996 10.5043 47.8268 11.2612C49.6541 12.0181 51.2159 13.2998 52.3147 14.9443C53.4135 16.5888 54 18.5222 54 20.5C54 20.7652 54.1054 21.0196 54.2929 21.2071C54.4804 21.3946 54.7348 21.5 55 21.5C55.2652 21.5 55.5196 21.3946 55.7071 21.2071C55.8946 21.0196 56 20.7652 56 20.5C56 18.1266 55.2962 15.8066 53.9776 13.8332C52.6591 11.8598 50.7849 10.3217 48.5922 9.41345C46.3995 8.5052 43.9867 8.26756 41.6589 8.73058C39.3312 9.1936 37.193 10.3365 35.5147 12.0147C33.8365 13.693 32.6936 15.8312 32.2306 18.1589C31.7676 20.4867 32.0052 22.8995 32.9135 25.0922C33.8217 27.2849 35.3598 29.1591 37.3332 30.4776C39.3066 31.7962 41.6266 32.5 44 32.5C44.2652 32.5 44.5196 32.3946 44.7071 32.2071C44.8946 32.0196 45 31.7652 45 31.5C45 31.2348 44.8946 30.9804 44.7071 30.7929C44.5196 30.6054 44.2652 30.5 44 30.5Z" fill="white"/>
<path d="M44.0006 14.5C43.7353 14.5 43.481 14.6054 43.2935 14.7929C43.1059 14.9804 43.0006 15.2348 43.0006 15.5V20.086L40.2936 22.793C40.1981 22.8852 40.1219 22.9956 40.0695 23.1176C40.0171 23.2396 39.9895 23.3708 39.9883 23.5036C39.9872 23.6364 40.0125 23.768 40.0627 23.8909C40.113 24.0138 40.1873 24.1255 40.2812 24.2194C40.3751 24.3133 40.4867 24.3875 40.6096 24.4378C40.7325 24.4881 40.8642 24.5134 40.997 24.5122C41.1297 24.5111 41.261 24.4835 41.383 24.4311C41.505 24.3787 41.6153 24.3025 41.7076 24.207L44.7076 21.207C44.8951 21.0195 45.0005 20.7652 45.0006 20.5V15.5C45.0006 15.2348 44.8952 14.9804 44.7077 14.7929C44.5201 14.6054 44.2658 14.5 44.0006 14.5Z" fill="white"/>
</g>
<path d="M68.2636 26V15.0909H75.4866V16.9925H70.57V19.592H75.0072V21.4936H70.57V26H68.2636ZM79.2259 26.1545C78.7039 26.1545 78.2387 26.0639 77.8303 25.8828C77.422 25.6982 77.0988 25.4265 76.8609 25.0678C76.6265 24.7056 76.5093 24.2546 76.5093 23.7148C76.5093 23.2603 76.5928 22.8786 76.7597 22.5696C76.9266 22.2607 77.1539 22.0121 77.4415 21.8239C77.7291 21.6357 78.0558 21.4936 78.4216 21.3977C78.7909 21.3018 79.178 21.2344 79.5828 21.1953C80.0587 21.1456 80.4422 21.0994 80.7334 21.0568C81.0246 21.0107 81.2359 20.9432 81.3673 20.8544C81.4987 20.7656 81.5644 20.6342 81.5644 20.4602V20.4283C81.5644 20.0909 81.4578 19.8299 81.2448 19.6452C81.0352 19.4606 80.7369 19.3683 80.3499 19.3683C79.9415 19.3683 79.6166 19.4588 79.3751 19.6399C79.1336 19.8175 78.9738 20.0412 78.8957 20.3111L76.797 20.1406C76.9035 19.6435 77.113 19.2138 77.4255 18.8516C77.738 18.4858 78.1411 18.2053 78.6347 18.0099C79.1318 17.8111 79.7071 17.7116 80.3605 17.7116C80.8151 17.7116 81.2501 17.7649 81.6656 17.8714C82.0846 17.978 82.4557 18.1431 82.7789 18.3668C83.1056 18.5906 83.363 18.8782 83.5512 19.2298C83.7394 19.5778 83.8335 19.995 83.8335 20.4815V26H81.6816V24.8654H81.6176C81.4862 25.1211 81.3105 25.3466 81.0903 25.5419C80.8701 25.7337 80.6056 25.8846 80.2966 25.9947C79.9877 26.1012 79.6308 26.1545 79.2259 26.1545ZM79.8758 24.5884C80.2096 24.5884 80.5044 24.5227 80.76 24.3913C81.0157 24.2564 81.2164 24.0753 81.3619 23.848C81.5075 23.6207 81.5803 23.3633 81.5803 23.0756V22.2074C81.5093 22.2536 81.4117 22.2962 81.2874 22.3352C81.1666 22.3707 81.0299 22.4045 80.8772 22.4364C80.7245 22.4648 80.5718 22.4915 80.4191 22.5163C80.2664 22.5376 80.1279 22.5572 80.0036 22.5749C79.7373 22.614 79.5047 22.6761 79.3058 22.7614C79.107 22.8466 78.9525 22.962 78.8424 23.1076C78.7323 23.2496 78.6773 23.4272 78.6773 23.6403C78.6773 23.9492 78.7892 24.1854 79.0129 24.3487C79.2401 24.5085 79.5278 24.5884 79.8758 24.5884ZM87.8632 15.0909V26H85.594V15.0909H87.8632ZM91.9501 15.0909V26H89.6809V15.0909H91.9501ZM93.7678 26V17.8182H96.037V26H93.7678ZM94.9078 16.7635C94.5704 16.7635 94.281 16.6516 94.0395 16.4279C93.8016 16.2006 93.6826 15.929 93.6826 15.6129C93.6826 15.3004 93.8016 15.0323 94.0395 14.8086C94.281 14.5813 94.5704 14.4677 94.9078 14.4677C95.2451 14.4677 95.5328 14.5813 95.7707 14.8086C96.0122 15.0323 96.1329 15.3004 96.1329 15.6129C96.1329 15.929 96.0122 16.2006 95.7707 16.4279C95.5328 16.6516 95.2451 16.7635 94.9078 16.7635ZM100.87 26.1332C100.248 26.1332 99.6854 25.9734 99.1811 25.6538C98.6804 25.3306 98.2827 24.8565 97.9879 24.2315C97.6967 23.603 97.5511 22.8324 97.5511 21.9197C97.5511 20.9822 97.7021 20.2028 98.0039 19.5813C98.3058 18.9563 98.707 18.4893 99.2077 18.1804C99.712 17.8679 100.264 17.7116 100.864 17.7116C101.322 17.7116 101.704 17.7898 102.01 17.946C102.319 18.0987 102.567 18.2905 102.755 18.5213C102.947 18.7486 103.093 18.9723 103.192 19.1925H103.261V15.0909H105.525V26H103.288V24.6896H103.192C103.086 24.9169 102.935 25.1424 102.739 25.3661C102.548 25.5863 102.297 25.7692 101.988 25.9148C101.683 26.0604 101.31 26.1332 100.87 26.1332ZM101.589 24.3274C101.955 24.3274 102.263 24.228 102.516 24.0291C102.771 23.8267 102.967 23.5444 103.102 23.1822C103.24 22.82 103.309 22.3956 103.309 21.9091C103.309 21.4226 103.242 21 103.107 20.6413C102.972 20.2827 102.777 20.0057 102.521 19.8104C102.265 19.6151 101.955 19.5174 101.589 19.5174C101.216 19.5174 100.902 19.6186 100.646 19.821C100.39 20.0234 100.197 20.304 100.065 20.6626C99.9339 21.0213 99.8683 21.4368 99.8683 21.9091C99.8683 22.3849 99.9339 22.8058 100.065 23.1715C100.2 23.5337 100.394 23.8178 100.646 24.0238C100.902 24.2262 101.216 24.3274 101.589 24.3274ZM111.088 26.1598C110.26 26.1598 109.545 25.984 108.941 25.6325C108.341 25.2773 107.877 24.7837 107.551 24.1516C107.224 23.516 107.061 22.7791 107.061 21.9411C107.061 21.0959 107.224 20.3572 107.551 19.7251C107.877 19.0895 108.341 18.5959 108.941 18.2443C109.545 17.8892 110.26 17.7116 111.088 17.7116C111.915 17.7116 112.629 17.8892 113.229 18.2443C113.833 18.5959 114.298 19.0895 114.625 19.7251C114.951 20.3572 115.115 21.0959 115.115 21.9411C115.115 22.7791 114.951 23.516 114.625 24.1516C114.298 24.7837 113.833 25.2773 113.229 25.6325C112.629 25.984 111.915 26.1598 111.088 26.1598ZM111.098 24.402C111.475 24.402 111.789 24.2955 112.041 24.0824C112.293 23.8658 112.483 23.571 112.611 23.1982C112.742 22.8253 112.808 22.4009 112.808 21.9251C112.808 21.4492 112.742 21.0249 112.611 20.652C112.483 20.2791 112.293 19.9844 112.041 19.7678C111.789 19.5511 111.475 19.4428 111.098 19.4428C110.718 19.4428 110.399 19.5511 110.139 19.7678C109.884 19.9844 109.69 20.2791 109.559 20.652C109.431 21.0249 109.367 21.4492 109.367 21.9251C109.367 22.4009 109.431 22.8253 109.559 23.1982C109.69 23.571 109.884 23.8658 110.139 24.0824C110.399 24.2955 110.718 24.402 111.098 24.402Z" fill="white"/>
<defs>
<clipPath id="clip0_1182_15812">
<rect width="24" height="24" fill="white" transform="translate(32 8.5)"/>
</clipPath>
</defs>
</svg>
