<svg width="40" height="37" viewBox="0 0 40 37" fill="none" xmlns="http://www.w3.org/2000/svg">
<path d="M39.5252 0.808135C39.2088 0.492834 38.7803 0.315796 38.3336 0.315796C37.8869 0.315796 37.4584 0.492834 37.1419 0.808135L29.2019 8.74812L28.6686 8.22646C27.2625 6.85305 25.4167 6.01994 23.4566 5.8739C21.4965 5.72786 19.5477 6.27826 17.9536 7.42813C15.6528 9.16312 13.0954 10.5284 10.3736 11.4748L6.91691 12.4881C5.79366 12.8178 4.7518 13.3789 3.85827 14.1352C2.96474 14.8915 2.23931 15.8264 1.72858 16.8798C1.22625 17.9189 0.946474 19.0514 0.907155 20.2048C0.867836 21.3583 1.06984 22.5072 1.50024 23.5781C3.13154 27.5827 5.9281 31.005 9.52745 33.4014C13.1268 35.7978 17.363 37.0578 21.6869 37.0181H23.2269C23.5715 37.0179 23.9077 36.912 24.1902 36.7148C27.1239 34.7998 29.6312 32.3005 31.5554 29.3729C33.4796 26.4453 34.7794 23.1523 35.3736 19.6998C35.5803 18.3796 35.4683 17.0291 35.047 15.761C34.6258 14.4929 33.9074 13.3439 32.9519 12.4098L31.6186 11.1031L39.5302 3.19147C39.8449 2.87436 40.021 2.44548 40.0201 1.99877C40.0191 1.55205 39.8412 1.12392 39.5252 0.808135V0.808135ZM22.6802 33.6414H21.6802C19.2176 33.6448 16.7783 33.1652 14.5002 32.2298L14.5186 32.2198C17.4334 30.7572 19.9287 28.5779 21.7702 25.8864L22.6336 24.6181C22.8851 24.249 22.9797 23.7951 22.8965 23.3563C22.8134 22.9175 22.5593 22.5296 22.1902 22.2781C21.8212 22.0266 21.3673 21.932 20.9284 22.0151C20.4896 22.0983 20.1018 22.3523 19.8502 22.7214L18.9869 23.9898C17.4656 26.2091 15.4057 28.0058 13.0002 29.2114L10.9152 30.2614C9.24711 29.0889 7.79123 27.6403 6.61024 25.9781C9.34187 25.0591 11.8341 23.5423 13.9052 21.5381C14.2248 21.2256 14.4072 20.7989 14.4122 20.352C14.4172 19.905 14.2444 19.4744 13.9319 19.1548C13.6194 18.8352 13.1927 18.6528 12.7458 18.6478C12.2988 18.6428 11.8682 18.8156 11.5486 19.1281C9.68339 20.9354 7.40697 22.2623 4.91524 22.9948C4.81358 22.7698 4.70358 22.5498 4.61191 22.3181C4.35378 21.6842 4.23295 21.0028 4.25737 20.3188C4.28179 19.6347 4.45091 18.9637 4.75358 18.3498C5.06 17.7194 5.49456 17.1599 6.0295 16.7071C6.56443 16.2542 7.18797 15.918 7.86024 15.7198L11.3152 14.7064C13.3202 14.0624 15.238 13.1734 17.0252 12.0598L30.2169 24.9131C28.4642 28.4022 25.8749 31.4031 22.6802 33.6481V33.6414ZM32.0469 19.1698C31.9195 19.9495 31.7476 20.7213 31.5319 21.4814L19.9136 10.1665C20.7659 9.55385 21.7889 9.22393 22.8386 9.22312C24.137 9.22148 25.3843 9.72958 26.3119 10.6381L30.5936 14.8198C31.1652 15.3778 31.5953 16.0643 31.8481 16.822C32.1009 17.5798 32.169 18.387 32.0469 19.1764V19.1698Z" fill="#374957"/>
</svg>
