<svg width="41" height="39" viewBox="0 0 41 39" fill="none" xmlns="http://www.w3.org/2000/svg">
<path d="M38.0583 13.1001C37.2859 12.3252 36.3674 11.7111 35.3561 11.2934C34.3449 10.8757 33.2608 10.6628 32.1666 10.6668V10.6668H5.16661L12.3333 3.50015C12.6453 3.18675 12.8201 2.76222 12.8192 2.31995C12.8183 1.87767 12.6417 1.45389 12.3283 1.14181C12.0149 0.829743 11.5903 0.65495 11.1481 0.655888C10.7058 0.656825 10.282 0.833417 9.96994 1.14681L1.71994 9.39515C0.938814 10.1765 0.5 11.2361 0.5 12.341C0.5 13.4458 0.938814 14.5054 1.71994 15.2868L9.96994 23.5385C10.1247 23.6937 10.3085 23.8168 10.5108 23.901C10.7132 23.9851 10.9301 24.0286 11.1493 24.0289C11.3684 24.0292 11.5855 23.9864 11.788 23.9028C11.9906 23.8192 12.1748 23.6966 12.3299 23.5418C12.4851 23.3871 12.6083 23.2033 12.6925 23.0009C12.7766 22.7986 12.8201 22.5817 12.8204 22.3625C12.8207 22.1434 12.7778 21.9263 12.6943 21.7237C12.6107 21.5211 12.488 21.337 12.3333 21.1818L5.14661 14.0001H32.1666C33.4927 14.0001 34.7645 14.5269 35.7021 15.4646C36.6398 16.4023 37.1666 17.6741 37.1666 19.0001V30.6668C37.1666 31.9929 36.6398 33.2647 35.7021 34.2023C34.7645 35.14 33.4927 35.6668 32.1666 35.6668H8.83328C8.39125 35.6668 7.96733 35.8424 7.65477 36.155C7.34221 36.4675 7.16661 36.8915 7.16661 37.3335C7.16661 37.7755 7.34221 38.1994 7.65477 38.512C7.96733 38.8246 8.39125 39.0001 8.83328 39.0001H32.1666C34.3759 38.9975 36.494 38.1187 38.0562 36.5564C39.6185 34.9942 40.4973 32.8761 40.4999 30.6668V19.0001C40.5036 17.9041 40.2897 16.8182 39.8706 15.8054C39.4515 14.7926 38.8354 13.8731 38.0583 13.1001Z" fill="#374957"/>
</svg>
