<svg width="40" height="40" viewBox="0 0 40 40" fill="none" xmlns="http://www.w3.org/2000/svg">
<g clip-path="url(#clip0_2416_17692)">
<path d="M26.6664 13.3336C26.3539 13.0211 25.93 12.8456 25.4881 12.8456C25.0461 12.8456 24.6223 13.0211 24.3097 13.3336L19.9997 17.6436L15.6897 13.3336C15.3754 13.03 14.9544 12.862 14.5174 12.8658C14.0804 12.8696 13.6624 13.0448 13.3534 13.3539C13.0444 13.6629 12.8691 14.0809 12.8653 14.5179C12.8615 14.9549 13.0295 15.3759 13.3331 15.6902L17.6431 20.0002L13.3331 24.3102C13.0295 24.6246 12.8615 25.0456 12.8653 25.4826C12.8691 25.9196 13.0444 26.3376 13.3534 26.6466C13.6624 26.9556 14.0804 27.1309 14.5174 27.1347C14.9544 27.1385 15.3754 26.9705 15.6897 26.6669L19.9997 22.3569L24.3097 26.6669C24.6241 26.9705 25.0451 27.1385 25.4821 27.1347C25.9191 27.1309 26.3371 26.9556 26.6461 26.6466C26.9551 26.3376 27.1304 25.9196 27.1342 25.4826C27.138 25.0456 26.97 24.6246 26.6664 24.3102L22.3564 20.0002L26.6664 15.6902C26.9788 15.3777 27.1544 14.9538 27.1544 14.5119C27.1544 14.07 26.9788 13.6461 26.6664 13.3336Z" fill="#374957"/>
<path d="M20 0C16.0444 0 12.1776 1.17298 8.8886 3.37061C5.59962 5.56824 3.03617 8.69181 1.52242 12.3463C0.00866572 16.0009 -0.387401 20.0222 0.384303 23.9018C1.15601 27.7814 3.06082 31.3451 5.85787 34.1421C8.65492 36.9392 12.2186 38.844 16.0982 39.6157C19.9778 40.3874 23.9992 39.9913 27.6537 38.4776C31.3082 36.9638 34.4318 34.4004 36.6294 31.1114C38.827 27.8224 40 23.9556 40 20C39.9943 14.6974 37.8853 9.61368 34.1358 5.8642C30.3863 2.11471 25.3026 0.00573514 20 0V0ZM20 36.6667C16.7037 36.6667 13.4813 35.6892 10.7405 33.8578C7.99969 32.0265 5.86348 29.4235 4.60202 26.3781C3.34056 23.3326 3.0105 19.9815 3.65359 16.7485C4.29667 13.5155 5.88402 10.5458 8.2149 8.21489C10.5458 5.88401 13.5155 4.29667 16.7485 3.65358C19.9815 3.01049 23.3326 3.34055 26.3781 4.60201C29.4235 5.86347 32.0265 7.99968 33.8578 10.7405C35.6892 13.4813 36.6667 16.7036 36.6667 20C36.6618 24.4188 34.9043 28.6552 31.7798 31.7798C28.6552 34.9043 24.4188 36.6618 20 36.6667V36.6667Z" fill="#374957"/>
</g>
<defs>
<clipPath id="clip0_2416_17692">
<rect width="40" height="40" fill="white"/>
</clipPath>
</defs>
</svg>
