<svg width="36" height="36" viewBox="0 0 36 36" fill="none" xmlns="http://www.w3.org/2000/svg">
<g clip-path="url(#clip0_66_280)">
<path d="M18 36C27.9411 36 36 27.9411 36 18C36 8.05887 27.9411 0 18 0C8.05887 0 0 8.05887 0 18C0 27.9411 8.05887 36 18 36Z" fill="url(#paint0_radial_66_280)" fill-opacity="0.67"/>
<path d="M18 32.5C26.0081 32.5 32.5 26.0081 32.5 18C32.5 9.99187 26.0081 3.5 18 3.5C9.99187 3.5 3.5 9.99187 3.5 18C3.5 26.0081 9.99187 32.5 18 32.5Z" fill="#FF9900" stroke="white"/>
<path d="M25 18.1048V23.9044C25 25.3812 23.8028 26.5785 22.326 26.5785H13.674C12.1972 26.5785 11 25.3813 11 23.9044V18.1048C11 16.6805 12.1546 15.5258 13.5789 15.5258H22.4211C23.8454 15.5258 25 16.6804 25 18.1048Z" fill="white" stroke="white" stroke-width="1.5"/>
<path d="M18.183 19.9329C17.8899 19.9329 17.6088 20.0494 17.4015 20.2566C17.1942 20.4639 17.0778 20.7451 17.0778 21.0382V23.2487C17.0778 23.5418 17.1942 23.823 17.4015 24.0303C17.6088 24.2375 17.8899 24.354 18.183 24.354C18.4762 24.354 18.7573 24.2375 18.9646 24.0303C19.1718 23.823 19.2883 23.5418 19.2883 23.2487V21.0382C19.2883 20.7451 19.1718 20.4639 18.9646 20.2566C18.7573 20.0494 18.4762 19.9329 18.183 19.9329Z" fill="#FF9900"/>
<circle cx="18.1828" cy="20.301" r="1.84211" fill="#FF9900"/>
<path d="M22.7882 15.1579H22.4689H13.5777M13.2093 15.1579C14.2164 15.1579 13.5777 15.1579 13.5777 15.1579M13.5777 15.1579C13.5777 12.2105 15.4198 10 17.9987 10C18.6964 10 19.3437 10.1618 19.9169 10.4562" stroke="white" stroke-width="2"/>
</g>
<defs>
<radialGradient id="paint0_radial_66_280" cx="0" cy="0" r="1" gradientUnits="userSpaceOnUse" gradientTransform="translate(18 18) rotate(90) scale(18)">
<stop offset="0.802083" stop-color="#3D3D3D" stop-opacity="0.51"/>
<stop offset="0.895833" stop-color="#1D1D1D" stop-opacity="0.56"/>
<stop offset="1" stop-color="#8A8A8A" stop-opacity="0.57"/>
</radialGradient>
<clipPath id="clip0_66_280">
<rect width="36" height="36" fill="white"/>
</clipPath>
</defs>
</svg>
