<svg width="24" height="24" viewBox="0 0 24 24" fill="none" xmlns="http://www.w3.org/2000/svg">
<g clip-path="url(#clip0_1918_20354)">
<path d="M12.0003 23.9999C10.5763 24.003 9.2084 23.4455 8.19227 22.4479L4.25027 18.8049C3.20511 17.7903 2.37186 16.5783 1.79888 15.2391C1.22591 13.8999 0.924614 12.4602 0.91249 11.0037C0.900366 9.5471 1.17765 8.10263 1.72826 6.75409C2.27886 5.40554 3.09182 4.17979 4.11995 3.14795C5.14807 2.11611 6.3709 1.29875 7.71745 0.743293C9.064 0.187837 10.5075 -0.094648 11.9641 -0.0877679C13.4207 -0.0808878 14.8614 0.21522 16.2026 0.783372C17.5439 1.35152 18.7589 2.1804 19.7773 3.2219C21.8401 5.28479 22.9989 8.08261 22.9989 10.9999C22.9989 13.9172 21.8401 16.715 19.7773 18.7779L15.7863 22.4669C14.7743 23.4548 13.4145 24.0054 12.0003 23.9999ZM12.0003 1.9999C10.2202 1.99989 8.48015 2.52772 7.0001 3.51665C5.52004 4.50559 4.36648 5.9112 3.68528 7.55574C3.00409 9.20029 2.82585 11.0099 3.17313 12.7557C3.5204 14.5016 4.37758 16.1052 5.63627 17.3639L9.57027 20.9999C10.221 21.6217 11.0854 21.9703 11.9855 21.9738C12.8855 21.9773 13.7527 21.6356 14.4083 21.0189L18.3923 17.3369C20.0677 15.6464 21.0053 13.361 20.9999 10.9809C20.9945 8.6008 20.0464 6.31975 18.3633 4.6369C17.5297 3.79845 16.5381 3.13366 15.4459 2.68102C14.3537 2.22837 13.1826 1.99687 12.0003 1.9999ZM12.0003 17.9999C10.6158 17.9999 9.26242 17.5894 8.11128 16.8202C6.96013 16.051 6.06293 14.9578 5.53311 13.6787C5.0033 12.3996 4.86468 10.9921 5.13477 9.63427C5.40487 8.27641 6.07155 7.02913 7.05052 6.05016C8.02949 5.07119 9.27677 4.4045 10.6346 4.13441C11.9925 3.86431 13.4 4.00293 14.6791 4.53275C15.9581 5.06256 17.0514 5.95977 17.8206 7.11091C18.5897 8.26206 19.0003 9.61544 19.0003 10.9999C18.9982 12.8558 18.26 14.635 16.9477 15.9473C15.6354 17.2596 13.8561 17.9978 12.0003 17.9999ZM12.0003 5.99991C11.0114 5.99991 10.0447 6.29315 9.22242 6.84256C8.40017 7.39196 7.75931 8.17286 7.38087 9.08649C7.00243 10.0001 6.90342 11.0055 7.09634 11.9754C7.28927 12.9453 7.76547 13.8362 8.46474 14.5354C9.164 15.2347 10.0549 15.7109 11.0248 15.9038C11.9947 16.0968 13.0001 15.9977 13.9137 15.6193C14.8273 15.2409 15.6082 14.6 16.1576 13.7778C16.707 12.9555 17.0003 11.9888 17.0003 10.9999C16.9987 9.67431 16.4714 8.40346 15.534 7.46613C14.5967 6.52879 13.3259 6.00149 12.0003 5.99991ZM13.7073 12.7069C13.8947 12.5194 14.0001 12.2651 14.0001 11.9999C14.0001 11.7347 13.8947 11.4804 13.7073 11.2929L13.0003 10.5859V8.99991C13.0003 8.73469 12.8949 8.48034 12.7074 8.2928C12.5198 8.10526 12.2655 7.99991 12.0003 7.99991C11.7351 7.99991 11.4807 8.10526 11.2932 8.2928C11.1056 8.48034 11.0003 8.73469 11.0003 8.99991V10.9999C11.0003 11.2651 11.1057 11.5194 11.2933 11.7069L12.2933 12.7069C12.4808 12.8944 12.7351 12.9997 13.0003 12.9997C13.2654 12.9997 13.5197 12.8944 13.7073 12.7069Z" fill="#374957"/>
</g>
<defs>
<clipPath id="clip0_1918_20354">
<rect width="24" height="24" fill="white"/>
</clipPath>
</defs>
</svg>
