<svg width="27" height="24" viewBox="0 0 27 24" fill="none" xmlns="http://www.w3.org/2000/svg">
<path d="M11.2322 7.23223C11.7011 6.76339 12.337 6.5 13 6.5C13.663 6.5 14.2989 6.76339 14.7678 7.23223C15.2366 7.70107 15.5 8.33696 15.5 9V21C15.5 21.663 15.2366 22.2989 14.7678 22.7678C14.2989 23.2366 13.663 23.5 13 23.5C12.337 23.5 11.7011 23.2366 11.2322 22.7678C10.7634 22.2989 10.5 21.663 10.5 21V9C10.5 8.33696 10.7634 7.70107 11.2322 7.23223Z" stroke="#2C384F"/>
<path d="M20.2322 1.23223C20.7011 0.763392 21.337 0.5 22 0.5C22.663 0.5 23.2989 0.763392 23.7678 1.23223C24.2366 1.70107 24.5 2.33696 24.5 3V21C24.5 21.663 24.2366 22.2989 23.7678 22.7678C23.2989 23.2366 22.663 23.5 22 23.5C21.337 23.5 20.7011 23.2366 20.2322 22.7678C19.7634 22.2989 19.5 21.663 19.5 21V3C19.5 2.33696 19.7634 1.70107 20.2322 1.23223Z" stroke="#2C384F"/>
<path d="M2.23223 13.2322C2.70107 12.7634 3.33696 12.5 4 12.5C4.66304 12.5 5.29893 12.7634 5.76777 13.2322C6.23661 13.7011 6.5 14.337 6.5 15V21C6.5 21.663 6.23661 22.2989 5.76777 22.7678C5.29893 23.2366 4.66304 23.5 4 23.5C3.33696 23.5 2.70107 23.2366 2.23223 22.7678C1.76339 22.2989 1.5 21.663 1.5 21V15C1.5 14.337 1.76339 13.7011 2.23223 13.2322Z" stroke="#2C384F"/>
<path d="M26 2L1.5 22.5" stroke="#8A96AC" stroke-width="2" stroke-linecap="round"/>
</svg>
