<svg width="148" height="41" viewBox="0 0 148 41" fill="none" xmlns="http://www.w3.org/2000/svg">
<rect y="3" width="148" height="35" rx="10" fill="#6461FC"/>
<g clip-path="url(#clip0_1182_15774)">
<path d="M27.0002 10.4998C28.3267 10.5041 29.6392 10.7715 30.8617 11.2865C32.0842 11.8014 33.1924 12.5537 34.1222 13.4998H31.0002C30.735 13.4998 30.4806 13.6051 30.2931 13.7927C30.1056 13.9802 30.0002 14.2346 30.0002 14.4998C30.0002 14.765 30.1056 15.0194 30.2931 15.2069C30.4806 15.3944 30.735 15.4998 31.0002 15.4998H35.1432C35.6356 15.4995 36.1078 15.3038 36.456 14.9556C36.8042 14.6074 36.9999 14.1352 37.0002 13.6428V9.49979C37.0002 9.23457 36.8948 8.98022 36.7073 8.79268C36.5198 8.60514 36.2654 8.49979 36.0002 8.49979C35.735 8.49979 35.4806 8.60514 35.2931 8.79268C35.1056 8.98022 35.0002 9.23457 35.0002 9.49979V11.5778C33.3474 10.0892 31.3128 9.0902 29.1243 8.69254C26.9358 8.29488 24.6798 8.5143 22.609 9.32624C20.5381 10.1382 18.7342 11.5106 17.3992 13.2897C16.0642 15.0689 15.2508 17.1845 15.0502 19.3998C15.0373 19.539 15.0535 19.6795 15.0979 19.8121C15.1422 19.9447 15.2137 20.0667 15.3078 20.1702C15.4019 20.2737 15.5165 20.3564 15.6443 20.4132C15.7721 20.4699 15.9103 20.4994 16.0502 20.4998C16.2948 20.5029 16.5317 20.4146 16.7147 20.2522C16.8976 20.0898 17.0133 19.865 17.0392 19.6218C17.2618 17.1325 18.4072 14.8165 20.2503 13.1286C22.0934 11.4408 24.501 10.5031 27.0002 10.4998Z" fill="white"/>
<path d="M37.951 20.5001C37.7064 20.497 37.4695 20.5852 37.2865 20.7476C37.1036 20.91 36.9879 21.1348 36.962 21.3781C36.7967 23.2813 36.0889 25.0972 34.9227 26.6103C33.7564 28.1234 32.1806 29.2702 30.3821 29.9147C28.5837 30.5591 26.6382 30.6742 24.7764 30.2462C22.9145 29.8182 21.2145 28.8652 19.878 27.5001H23C23.2652 27.5001 23.5196 27.3947 23.7071 27.2072C23.8946 27.0197 24 26.7653 24 26.5001C24 26.2349 23.8946 25.9805 23.7071 25.793C23.5196 25.6054 23.2652 25.5001 23 25.5001H18.857C18.6131 25.5 18.3716 25.5479 18.1462 25.6412C17.9208 25.7345 17.7161 25.8712 17.5436 26.0437C17.3711 26.2162 17.2344 26.4209 17.1411 26.6463C17.0478 26.8717 16.9999 27.1132 17 27.3571V31.5001C17 31.7653 17.1054 32.0197 17.2929 32.2072C17.4804 32.3948 17.7348 32.5001 18 32.5001C18.2652 32.5001 18.5196 32.3948 18.7071 32.2072C18.8946 32.0197 19 31.7653 19 31.5001V29.4221C20.6528 30.9107 22.6874 31.9097 24.8759 32.3074C27.0644 32.705 29.3204 32.4856 31.3912 31.6737C33.4621 30.8617 35.266 29.4893 36.601 27.7102C37.936 25.931 38.7494 23.8153 38.95 21.6001C38.9629 21.4608 38.9467 21.3204 38.9023 21.1878C38.858 21.0551 38.7865 20.9332 38.6924 20.8297C38.5983 20.7262 38.4837 20.6435 38.3559 20.5867C38.2281 20.53 38.0899 20.5005 37.95 20.5001H37.951Z" fill="white"/>
</g>
<g clip-path="url(#clip1_1182_15774)">
<path d="M37.9997 19.5C37.7345 19.5 37.4802 19.6054 37.2926 19.7929C37.1051 19.9804 36.9997 20.2348 36.9997 20.5C37.0079 22.8253 36.2081 25.0812 34.7372 26.8822C33.2664 28.6831 31.2157 29.9173 28.9356 30.3738C26.6556 30.8303 24.2878 30.4807 22.2369 29.3849C20.186 28.289 18.5795 26.5148 17.6918 24.3657C16.804 22.2165 16.6903 19.8257 17.37 17.602C18.0498 15.3783 19.4807 13.4597 21.4183 12.1741C23.3559 10.8885 25.6798 10.3158 27.9929 10.5538C30.3059 10.7918 32.4645 11.8258 34.0997 13.479C34.0668 13.488 34.0334 13.495 33.9997 13.5H30.9997C30.7345 13.5 30.4802 13.6054 30.2926 13.7929C30.1051 13.9804 29.9997 14.2348 29.9997 14.5C29.9997 14.7652 30.1051 15.0196 30.2926 15.2071C30.4802 15.3946 30.7345 15.5 30.9997 15.5H33.9997C34.7954 15.5 35.5584 15.1839 36.121 14.6213C36.6837 14.0587 36.9997 13.2957 36.9997 12.5V9.5C36.9997 9.23478 36.8944 8.98043 36.7068 8.79289C36.5193 8.60536 36.2649 8.5 35.9997 8.5C35.7345 8.5 35.4802 8.60536 35.2926 8.79289C35.1051 8.98043 34.9997 9.23478 34.9997 9.5V11.565C32.9523 9.73453 30.3386 8.66217 27.5956 8.5271C24.8525 8.39204 22.1462 9.20246 19.9288 10.8229C17.7114 12.4434 16.1174 14.7758 15.4129 17.4303C14.7085 20.0848 14.9365 22.9007 16.0586 25.4074C17.1808 27.914 19.1293 29.9596 21.5784 31.2024C24.0275 32.4451 26.829 32.8097 29.5146 32.2353C32.2003 31.6608 34.6074 30.182 36.3338 28.0461C38.0602 25.9101 39.0012 23.2464 38.9997 20.5C38.9997 20.2348 38.8944 19.9804 38.7068 19.7929C38.5193 19.6054 38.2649 19.5 37.9997 19.5Z" fill="white"/>
<path d="M27 14.5C26.7348 14.5 26.4804 14.6054 26.2929 14.7929C26.1054 14.9804 26 15.2348 26 15.5V20.5C26.0001 20.7652 26.1055 21.0195 26.293 21.207L29.293 24.207C29.4816 24.3892 29.7342 24.49 29.9964 24.4877C30.2586 24.4854 30.5094 24.3802 30.6948 24.1948C30.8802 24.0094 30.9854 23.7586 30.9877 23.4964C30.99 23.2342 30.8892 22.9816 30.707 22.793L28 20.086V15.5C28 15.2348 27.8946 14.9804 27.7071 14.7929C27.5196 14.6054 27.2652 14.5 27 14.5Z" fill="white"/>
</g>
<path d="M51.1972 26V15.0909H55.5012C56.3286 15.0909 57.0335 15.2489 57.6159 15.565C58.1982 15.8775 58.6421 16.3125 58.9475 16.87C59.2565 17.424 59.411 18.0632 59.411 18.7876C59.411 19.5121 59.2547 20.1513 58.9422 20.7053C58.6297 21.2592 58.1769 21.6907 57.5839 21.9996C56.9944 22.3086 56.2806 22.4631 55.4426 22.4631H52.6993V20.6147H55.0697C55.5136 20.6147 55.8794 20.5384 56.167 20.3857C56.4582 20.2294 56.6748 20.0146 56.8169 19.7411C56.9624 19.4641 57.0352 19.1463 57.0352 18.7876C57.0352 18.4254 56.9624 18.1094 56.8169 17.8395C56.6748 17.5661 56.4582 17.3548 56.167 17.2056C55.8758 17.0529 55.5065 16.9766 55.059 16.9766H53.5036V26H51.1972ZM64.4633 26.1598C63.6217 26.1598 62.8973 25.9893 62.29 25.6484C61.6863 25.304 61.2211 24.8175 60.8944 24.1889C60.5677 23.5568 60.4044 22.8093 60.4044 21.9464C60.4044 21.1048 60.5677 20.3661 60.8944 19.7305C61.2211 19.0948 61.681 18.5994 62.2741 18.2443C62.8706 17.8892 63.5702 17.7116 64.3728 17.7116C64.9126 17.7116 65.415 17.7987 65.8802 17.9727C66.349 18.1431 66.7574 18.4006 67.1054 18.745C67.4569 19.0895 67.7304 19.5227 67.9257 20.0447C68.121 20.5632 68.2187 21.1705 68.2187 21.8665V22.4897H61.3099V21.0835H66.0827C66.0827 20.7567 66.0116 20.4673 65.8696 20.2152C65.7275 19.9631 65.5305 19.766 65.2783 19.6239C65.0297 19.4783 64.7403 19.4055 64.4101 19.4055C64.0656 19.4055 63.7602 19.4854 63.4939 19.6452C63.2311 19.8015 63.0251 20.0128 62.876 20.2791C62.7268 20.5419 62.6505 20.8349 62.6469 21.158V22.495C62.6469 22.8999 62.7215 23.2496 62.8706 23.5444C63.0233 23.8391 63.2382 24.0664 63.5152 24.2262C63.7922 24.386 64.1206 24.4659 64.5006 24.4659C64.7528 24.4659 64.9836 24.4304 65.1931 24.3594C65.4026 24.2884 65.5819 24.1818 65.7311 24.0398C65.8802 23.8977 65.9939 23.7237 66.072 23.5178L68.1707 23.6562C68.0642 24.1605 67.8458 24.6009 67.5155 24.9773C67.1888 25.3501 66.7662 25.6413 66.2478 25.8509C65.7329 26.0568 65.1381 26.1598 64.4633 26.1598ZM71.9687 21.2699V26H69.6995V17.8182H71.8621V19.2617H71.958C72.1391 18.7859 72.4427 18.4094 72.8689 18.1325C73.295 17.8519 73.8117 17.7116 74.4189 17.7116C74.9871 17.7116 75.4825 17.8359 75.9051 18.0845C76.3277 18.3331 76.6562 18.6882 76.8905 19.1499C77.1249 19.608 77.2421 20.1548 77.2421 20.7905V26H74.9729V21.1953C74.9765 20.6946 74.8486 20.304 74.5894 20.0234C74.3302 19.7393 73.9733 19.5973 73.5187 19.5973C73.2133 19.5973 72.9434 19.663 72.7091 19.7944C72.4782 19.9258 72.2971 20.1175 72.1657 20.3697C72.0379 20.6183 71.9722 20.9183 71.9687 21.2699ZM82.0455 26.1332C81.424 26.1332 80.8612 25.9734 80.3569 25.6538C79.8562 25.3306 79.4585 24.8565 79.1637 24.2315C78.8725 23.603 78.7269 22.8324 78.7269 21.9197C78.7269 20.9822 78.8778 20.2028 79.1797 19.5813C79.4815 18.9563 79.8828 18.4893 80.3835 18.1804C80.8878 17.8679 81.44 17.7116 82.0401 17.7116C82.4982 17.7116 82.88 17.7898 83.1854 17.946C83.4943 18.0987 83.7429 18.2905 83.9311 18.5213C84.1229 18.7486 84.2685 18.9723 84.3679 19.1925H84.4371V15.0909H86.701V26H84.4638V24.6896H84.3679C84.2614 24.9169 84.1104 25.1424 83.9151 25.3661C83.7234 25.5863 83.473 25.7692 83.1641 25.9148C82.8587 26.0604 82.4858 26.1332 82.0455 26.1332ZM82.7646 24.3274C83.1303 24.3274 83.4393 24.228 83.6914 24.0291C83.9471 23.8267 84.1424 23.5444 84.2773 23.1822C84.4158 22.82 84.4851 22.3956 84.4851 21.9091C84.4851 21.4226 84.4176 21 84.2827 20.6413C84.1477 20.2827 83.9524 20.0057 83.6967 19.8104C83.4411 19.6151 83.1303 19.5174 82.7646 19.5174C82.3917 19.5174 82.0774 19.6186 81.8217 19.821C81.5661 20.0234 81.3725 20.304 81.2411 20.6626C81.1097 21.0213 81.044 21.4368 81.044 21.9091C81.044 22.3849 81.1097 22.8058 81.2411 23.1715C81.3761 23.5337 81.5696 23.8178 81.8217 24.0238C82.0774 24.2262 82.3917 24.3274 82.7646 24.3274ZM88.5667 26V17.8182H90.8358V26H88.5667ZM89.7066 16.7635C89.3692 16.7635 89.0798 16.6516 88.8383 16.4279C88.6004 16.2006 88.4814 15.929 88.4814 15.6129C88.4814 15.3004 88.6004 15.0323 88.8383 14.8086C89.0798 14.5813 89.3692 14.4677 89.7066 14.4677C90.0439 14.4677 90.3316 14.5813 90.5695 14.8086C90.811 15.0323 90.9317 15.3004 90.9317 15.6129C90.9317 15.929 90.811 16.2006 90.5695 16.4279C90.3316 16.6516 90.0439 16.7635 89.7066 16.7635ZM96.3823 26.1598C95.5407 26.1598 94.8162 25.9893 94.209 25.6484C93.6053 25.304 93.1401 24.8175 92.8134 24.1889C92.4867 23.5568 92.3233 22.8093 92.3233 21.9464C92.3233 21.1048 92.4867 20.3661 92.8134 19.7305C93.1401 19.0948 93.6 18.5994 94.193 18.2443C94.7896 17.8892 95.4892 17.7116 96.2917 17.7116C96.8315 17.7116 97.334 17.7987 97.7992 17.9727C98.2679 18.1431 98.6763 18.4006 99.0243 18.745C99.3759 19.0895 99.6493 19.5227 99.8446 20.0447C100.04 20.5632 100.138 21.1705 100.138 21.8665V22.4897H93.2289V21.0835H98.0016C98.0016 20.7567 97.9306 20.4673 97.7885 20.2152C97.6465 19.9631 97.4494 19.766 97.1973 19.6239C96.9487 19.4783 96.6593 19.4055 96.329 19.4055C95.9846 19.4055 95.6792 19.4854 95.4128 19.6452C95.15 19.8015 94.9441 20.0128 94.7949 20.2791C94.6458 20.5419 94.5694 20.8349 94.5659 21.158V22.495C94.5659 22.8999 94.6404 23.2496 94.7896 23.5444C94.9423 23.8391 95.1571 24.0664 95.4341 24.2262C95.7111 24.386 96.0396 24.4659 96.4196 24.4659C96.6717 24.4659 96.9025 24.4304 97.112 24.3594C97.3216 24.2884 97.5009 24.1818 97.65 24.0398C97.7992 23.8977 97.9128 23.7237 97.9909 23.5178L100.09 23.6562C99.9831 24.1605 99.7647 24.6009 99.4345 24.9773C99.1078 25.3501 98.6852 25.6413 98.1667 25.8509C97.6518 26.0568 97.057 26.1598 96.3823 26.1598ZM103.888 21.2699V26H101.618V17.8182H103.781V19.2617H103.877C104.058 18.7859 104.362 18.4094 104.788 18.1325C105.214 17.8519 105.731 17.7116 106.338 17.7116C106.906 17.7116 107.401 17.8359 107.824 18.0845C108.247 18.3331 108.575 18.6882 108.809 19.1499C109.044 19.608 109.161 20.1548 109.161 20.7905V26H106.892V21.1953C106.895 20.6946 106.768 20.304 106.508 20.0234C106.249 19.7393 105.892 19.5973 105.438 19.5973C105.132 19.5973 104.862 19.663 104.628 19.7944C104.397 19.9258 104.216 20.1175 104.085 20.3697C103.957 20.6183 103.891 20.9183 103.888 21.2699ZM115.301 17.8182V19.5227H110.374V17.8182H115.301ZM111.493 15.858H113.762V23.4858C113.762 23.6953 113.794 23.8587 113.858 23.9759C113.922 24.0895 114.011 24.1694 114.124 24.2156C114.241 24.2617 114.376 24.2848 114.529 24.2848C114.636 24.2848 114.742 24.2759 114.849 24.2582C114.955 24.2369 115.037 24.2209 115.094 24.2102L115.451 25.8988C115.337 25.9343 115.177 25.9751 114.971 26.0213C114.765 26.071 114.515 26.1012 114.22 26.1119C113.673 26.1332 113.194 26.0604 112.782 25.8935C112.373 25.7266 112.056 25.4673 111.828 25.1158C111.601 24.7642 111.489 24.3203 111.493 23.7841V15.858ZM120.42 26.1598C119.579 26.1598 118.854 25.9893 118.247 25.6484C117.643 25.304 117.178 24.8175 116.851 24.1889C116.525 23.5568 116.361 22.8093 116.361 21.9464C116.361 21.1048 116.525 20.3661 116.851 19.7305C117.178 19.0948 117.638 18.5994 118.231 18.2443C118.828 17.8892 119.527 17.7116 120.33 17.7116C120.87 17.7116 121.372 17.7987 121.837 17.9727C122.306 18.1431 122.714 18.4006 123.062 18.745C123.414 19.0895 123.687 19.5227 123.883 20.0447C124.078 20.5632 124.176 21.1705 124.176 21.8665V22.4897H117.267V21.0835H122.04C122.04 20.7567 121.969 20.4673 121.827 20.2152C121.685 19.9631 121.487 19.766 121.235 19.6239C120.987 19.4783 120.697 19.4055 120.367 19.4055C120.023 19.4055 119.717 19.4854 119.451 19.6452C119.188 19.8015 118.982 20.0128 118.833 20.2791C118.684 20.5419 118.608 20.8349 118.604 21.158V22.495C118.604 22.8999 118.679 23.2496 118.828 23.5444C118.98 23.8391 119.195 24.0664 119.472 24.2262C119.749 24.386 120.078 24.4659 120.458 24.4659C120.71 24.4659 120.941 24.4304 121.15 24.3594C121.36 24.2884 121.539 24.1818 121.688 24.0398C121.837 23.8977 121.951 23.7237 122.029 23.5178L124.128 23.6562C124.021 24.1605 123.803 24.6009 123.473 24.9773C123.146 25.3501 122.723 25.6413 122.205 25.8509C121.69 26.0568 121.095 26.1598 120.42 26.1598Z" fill="white"/>
<defs>
<clipPath id="clip0_1182_15774">
<rect width="24" height="24" fill="white" transform="translate(15 8.5)"/>
</clipPath>
<clipPath id="clip1_1182_15774">
<rect width="24" height="24" fill="white" transform="translate(15 8.5)"/>
</clipPath>
</defs>
</svg>
