<svg width="18" height="18" viewBox="0 0 18 18" fill="none" xmlns="http://www.w3.org/2000/svg">
<g clip-path="url(#clip0_990_20850)">
<path d="M14.25 18H13.5C13.3011 18 13.1103 17.921 12.9697 17.7803C12.829 17.6397 12.75 17.4489 12.75 17.25C12.75 17.0511 12.829 16.8603 12.9697 16.7197C13.1103 16.579 13.3011 16.5 13.5 16.5H14.25C14.8467 16.5 15.419 16.2629 15.841 15.841C16.2629 15.419 16.5 14.8467 16.5 14.25V13.5C16.5 13.3011 16.579 13.1103 16.7197 12.9697C16.8603 12.829 17.0511 12.75 17.25 12.75C17.4489 12.75 17.6397 12.829 17.7803 12.9697C17.921 13.1103 18 13.3011 18 13.5V14.25C17.9988 15.2442 17.6033 16.1973 16.9003 16.9003C16.1973 17.6033 15.2442 17.9988 14.25 18ZM18 4.5V3.75C17.9988 2.7558 17.6033 1.80267 16.9003 1.09966C16.1973 0.396661 15.2442 0.00119089 14.25 0L13.5 0C13.3011 0 13.1103 0.0790176 12.9697 0.21967C12.829 0.360322 12.75 0.551088 12.75 0.75C12.75 0.948912 12.829 1.13968 12.9697 1.28033C13.1103 1.42098 13.3011 1.5 13.5 1.5H14.25C14.8467 1.5 15.419 1.73705 15.841 2.15901C16.2629 2.58097 16.5 3.15326 16.5 3.75V4.5C16.5 4.69891 16.579 4.88968 16.7197 5.03033C16.8603 5.17098 17.0511 5.25 17.25 5.25C17.4489 5.25 17.6397 5.17098 17.7803 5.03033C17.921 4.88968 18 4.69891 18 4.5ZM5.25 17.25C5.25 17.0511 5.17098 16.8603 5.03033 16.7197C4.88968 16.579 4.69891 16.5 4.5 16.5H3.75C3.15326 16.5 2.58097 16.2629 2.15901 15.841C1.73705 15.419 1.5 14.8467 1.5 14.25V13.5C1.5 13.3011 1.42098 13.1103 1.28033 12.9697C1.13968 12.829 0.948912 12.75 0.75 12.75C0.551088 12.75 0.360322 12.829 0.21967 12.9697C0.0790176 13.1103 0 13.3011 0 13.5L0 14.25C0.00119089 15.2442 0.396661 16.1973 1.09966 16.9003C1.80267 17.6033 2.7558 17.9988 3.75 18H4.5C4.69891 18 4.88968 17.921 5.03033 17.7803C5.17098 17.6397 5.25 17.4489 5.25 17.25ZM1.5 4.5V3.75C1.5 3.15326 1.73705 2.58097 2.15901 2.15901C2.58097 1.73705 3.15326 1.5 3.75 1.5H4.5C4.69891 1.5 4.88968 1.42098 5.03033 1.28033C5.17098 1.13968 5.25 0.948912 5.25 0.75C5.25 0.551088 5.17098 0.360322 5.03033 0.21967C4.88968 0.0790176 4.69891 0 4.5 0L3.75 0C2.7558 0.00119089 1.80267 0.396661 1.09966 1.09966C0.396661 1.80267 0.00119089 2.7558 0 3.75L0 4.5C0 4.69891 0.0790176 4.88968 0.21967 5.03033C0.360322 5.17098 0.551088 5.25 0.75 5.25C0.948912 5.25 1.13968 5.17098 1.28033 5.03033C1.42098 4.88968 1.5 4.69891 1.5 4.5Z" fill="#374957"/>
<path d="M12.75 8.25H9.75V5.25C9.75 5.05109 9.67098 4.86032 9.53033 4.71967C9.38968 4.57902 9.19891 4.5 9 4.5C8.80109 4.5 8.61032 4.57902 8.46967 4.71967C8.32902 4.86032 8.25 5.05109 8.25 5.25V8.25H5.25C5.05109 8.25 4.86032 8.32902 4.71967 8.46967C4.57902 8.61032 4.5 8.80109 4.5 9C4.5 9.19891 4.57902 9.38968 4.71967 9.53033C4.86032 9.67098 5.05109 9.75 5.25 9.75H8.25V12.75C8.25 12.9489 8.32902 13.1397 8.46967 13.2803C8.61032 13.421 8.80109 13.5 9 13.5C9.19891 13.5 9.38968 13.421 9.53033 13.2803C9.67098 13.1397 9.75 12.9489 9.75 12.75V9.75H12.75C12.9489 9.75 13.1397 9.67098 13.2803 9.53033C13.421 9.38968 13.5 9.19891 13.5 9C13.5 8.80109 13.421 8.61032 13.2803 8.46967C13.1397 8.32902 12.9489 8.25 12.75 8.25Z" fill="#374957"/>
</g>
<defs>
<clipPath id="clip0_990_20850">
<rect width="18" height="18" fill="white"/>
</clipPath>
</defs>
</svg>
