<svg width="33" height="50" viewBox="0 0 33 50" fill="none" xmlns="http://www.w3.org/2000/svg">
<path d="M22.5645 8.68457V49.6846" stroke="#292929" stroke-opacity="0.19" stroke-width="5"/>
<path d="M22.3347 9.31201L22.5931 28.8763C22.5931 28.8763 17.2094 20.4838 11.132 21.8997C6.7902 22.9113 0.00169812 18.7459 0.00169812 18.7459C0.00169812 18.7459 7.90198 18.8551 12.0801 13.8649C14.5197 10.951 22.3347 9.31201 22.3347 9.31201Z" fill="#404040" fill-opacity="0.54"/>
<path d="M24.5645 6.68457V48.879" stroke="#0068A3" stroke-width="5"/>
<path d="M24.3347 7.31201L24.5931 26.8763C24.5931 26.8763 19.2094 18.4838 13.132 19.8997C8.7902 20.9113 2.0017 16.7459 2.0017 16.7459C2.0017 16.7459 9.90198 16.8551 14.0801 11.8649C16.5197 8.95101 24.3347 7.31201 24.3347 7.31201Z" fill="#FF9900"/>
</svg>
