<svg width="30" height="30" viewBox="0 0 30 30" fill="none" xmlns="http://www.w3.org/2000/svg"><g filter="url(#filter0_d_94_338)"><path d="M15 24C15 24 24 19 24 12C24 7.02944 19.9706 3 15 3C10.0294 3 6 7.02944 6 12C6 19 15 24 15 24Z" fill="#006AA3"/><path d="M15 24C15 24 24 19 24 12C24 7.02944 19.9706 3 15 3C10.0294 3 6 7.02944 6 12C6 19 15 24 15 24Z" stroke="white" stroke-width="0.5"/></g><circle cx="15" cy="12" r="7" fill="white"/><rect x="11.4286" y="12.2857" width="1.42857" height="1.42857" fill="#006AA3"/><rect x="12.8572" y="10.8571" width="1.42857" height="1.42857" fill="#006AA3"/><rect x="14.2857" y="9.42859" width="1.42857" height="1.42857" fill="#006AA3"/><rect x="14.2857" y="12.2857" width="1.42857" height="1.42857" fill="#006AA3"/><rect x="15.7143" y="10.8571" width="1.42857" height="1.42857" fill="#006AA3"/><rect x="10" y="10.8571" width="1.42857" height="1.42857" fill="#006AA3"/><rect x="11.4286" y="9.42859" width="1.42857" height="1.42857" fill="#006AA3"/><rect x="12.8572" y="8" width="1.42857" height="1.42857" fill="#006AA3"/><rect x="15.7143" y="8" width="1.42857" height="1.42857" fill="#006AA3"/><rect x="17.1428" y="9.42859" width="1.42857" height="1.42857" fill="#006AA3"/><rect x="18.5714" y="10.8571" width="1.42857" height="1.42857" fill="#006AA3"/><rect x="17.1428" y="12.2857" width="1.42857" height="1.42857" fill="#006AA3"/><rect x="15.7143" y="13.7143" width="1.42857" height="1.42857" fill="#006AA3"/><rect x="12.8572" y="13.7143" width="1.42857" height="1.42857" fill="#006AA3"/><defs><filter id="filter0_d_94_338" x="-0.25" y="-3.25" width="30.5" height="33.536" filterUnits="userSpaceOnUse" color-interpolation-filters="sRGB"><feFlood flood-opacity="0" result="BackgroundImageFix"/><feColorMatrix in="SourceAlpha" type="matrix" values="0 0 0 0 0 0 0 0 0 0 0 0 0 0 0 0 0 0 127 0" result="hardAlpha"/><feOffset/><feGaussianBlur stdDeviation="3"/><feComposite in2="hardAlpha" operator="out"/><feColorMatrix type="matrix" values="0 0 0 0 0 0 0 0 0 0 0 0 0 0 0 0 0 0 0.25 0"/><feBlend mode="normal" in2="BackgroundImageFix" result="effect1_dropShadow_94_338"/><feBlend mode="normal" in="SourceGraphic" in2="effect1_dropShadow_94_338" result="shape"/></filter></defs></svg>