<svg width="30" height="30" viewBox="0 0 30 30" fill="none" xmlns="http://www.w3.org/2000/svg"><g filter="url(#filter0_d_94_339)"><path d="M15 24C15 24 24 19 24 12C24 7.02944 19.9706 3 15 3C10.0294 3 6 7.02944 6 12C6 19 15 24 15 24Z" fill="red"/><path d="M15 24C15 24 24 19 24 12C24 7.02944 19.9706 3 15 3C10.0294 3 6 7.02944 6 12C6 19 15 24 15 24Z" stroke="white" stroke-width="0.5"/></g><circle cx="15" cy="12" r="7" fill="white"/><path d="M18.25 12.0311L13 15.0622L13 9L18.25 12.0311Z" fill="#006AA3"/><defs><filter id="filter0_d_94_339" x="-0.25" y="-3.25" width="30.5" height="33.536" filterUnits="userSpaceOnUse" color-interpolation-filters="sRGB"><feFlood flood-opacity="0" result="BackgroundImageFix"/><feColorMatrix in="SourceAlpha" type="matrix" values="0 0 0 0 0 0 0 0 0 0 0 0 0 0 0 0 0 0 127 0" result="hardAlpha"/><feOffset/><feGaussianBlur stdDeviation="3"/><feComposite in2="hardAlpha" operator="out"/><feColorMatrix type="matrix" values="0 0 0 0 0 0 0 0 0 0 0 0 0 0 0 0 0 0 0.25 0"/><feBlend mode="normal" in2="BackgroundImageFix" result="effect1_dropShadow_94_339"/><feBlend mode="normal" in="SourceGraphic" in2="effect1_dropShadow_94_339" result="shape"/></filter></defs></svg>