<svg width="36" height="36" viewBox="0 0 36 36" fill="none" xmlns="http://www.w3.org/2000/svg">
<g clip-path="url(#clip0_1_15)">
<path d="M18 36C27.9411 36 36 27.9411 36 18C36 8.05887 27.9411 0 18 0C8.05887 0 0 8.05887 0 18C0 27.9411 8.05887 36 18 36Z" fill="url(#paint0_radial_1_15)" fill-opacity="0.67"/>
<path d="M18 32.5C26.0081 32.5 32.5 26.0081 32.5 18C32.5 9.99187 26.0081 3.5 18 3.5C9.99187 3.5 3.5 9.99187 3.5 18C3.5 26.0081 9.99187 32.5 18 32.5Z" fill="#4D575E" stroke="white"/>
<path d="M18.9214 26.7334H17.0934V22.468H18.9214V26.7334Z" fill="#DBDBDB"/>
<path d="M23 11.2346H13V22.7346H23V11.2346Z" fill="white"/>
<path d="M25 11.5H11V10H25V11.5Z" fill="#DBDBDB"/>
<path d="M14.5 17.7346C14.7761 17.7346 15 17.5107 15 17.2346C15 16.9585 14.7761 16.7346 14.5 16.7346C14.2239 16.7346 14 16.9585 14 17.2346C14 17.5107 14.2239 17.7346 14.5 17.7346Z" fill="#4D575E"/>
</g>
<defs>
<radialGradient id="paint0_radial_1_15" cx="0" cy="0" r="1" gradientUnits="userSpaceOnUse" gradientTransform="translate(18 18) rotate(90) scale(18)">
<stop offset="0.802083" stop-color="#3D3D3D" stop-opacity="0.51"/>
<stop offset="0.895833" stop-color="#1D1D1D" stop-opacity="0.56"/>
<stop offset="1" stop-color="#8A8A8A" stop-opacity="0.57"/>
</radialGradient>
<clipPath id="clip0_1_15">
<rect width="36" height="36" fill="white"/>
</clipPath>
</defs>
</svg>
