<svg width="27" height="23" viewBox="0 0 27 23" fill="none" xmlns="http://www.w3.org/2000/svg">
<path d="M17.2 5C17.2 7.65097 19.349 9.8 22 9.8C24.651 9.8 26.8 7.65097 26.8 5C26.8 2.34903 24.651 0.2 22 0.2C19.349 0.2 17.2 2.34903 17.2 5ZM5.22701 22.461C5.48159 22.8879 6.03405 23.0276 6.46096 22.773L13.4179 18.6244C13.8448 18.3698 13.9845 17.8173 13.7299 17.3904C13.4753 16.9635 12.9229 16.8238 12.496 17.0784L6.31203 20.766L2.62437 14.5821C2.36979 14.1552 1.81733 14.0155 1.39042 14.2701C0.963508 14.5247 0.823805 15.0771 1.07839 15.504L5.22701 22.461ZM12.5 11L12.3876 11.8929L12.5 11ZM17 15L16.919 15.8963L17 15ZM12.6124 10.1071C11.1955 9.92862 10.058 10.931 9.25121 11.9779C8.40172 13.0803 7.66612 14.5541 7.06841 15.9824C6.46586 17.4223 5.98148 18.8699 5.64858 19.953C5.48176 20.4958 5.35214 20.9498 5.26396 21.2692C5.21985 21.4289 5.18608 21.5551 5.16316 21.642C5.1517 21.6854 5.14295 21.7191 5.13698 21.7422C5.13399 21.7538 5.1317 21.7627 5.13011 21.7689C5.12932 21.7721 5.1287 21.7745 5.12826 21.7762C5.12804 21.7771 5.12786 21.7778 5.12773 21.7783C5.12766 21.7786 5.1276 21.7788 5.12756 21.779C5.12751 21.7792 5.12747 21.7794 6 22C6.87253 22.2206 6.87251 22.2207 6.8725 22.2208C6.87251 22.2207 6.87251 22.2207 6.87254 22.2206C6.87258 22.2205 6.87267 22.2201 6.8728 22.2196C6.87306 22.2186 6.8735 22.2168 6.87411 22.2145C6.87533 22.2097 6.87725 22.2022 6.87986 22.1921C6.88507 22.1719 6.89302 22.1413 6.90366 22.101C6.92492 22.0203 6.95689 21.9009 6.99903 21.7483C7.08332 21.443 7.20813 21.0058 7.36915 20.4818C7.69193 19.4316 8.15688 18.0441 8.72888 16.6773C9.30571 15.2988 9.96988 13.9942 10.677 13.0767C11.4268 12.1036 12.0027 11.8445 12.3876 11.8929L12.6124 10.1071ZM22 5C21.1162 4.83011 21.1162 4.83003 21.1162 4.82998C21.1162 4.83002 21.1162 4.83001 21.1162 4.83008C21.1162 4.83022 21.1161 4.83052 21.116 4.83098C21.1158 4.83188 21.1155 4.83341 21.1151 4.83553C21.1143 4.83978 21.113 4.84645 21.1112 4.85546C21.1077 4.87348 21.1022 4.90084 21.0949 4.93692C21.0803 5.0091 21.0583 5.11609 21.0291 5.25285C20.9706 5.52647 20.8835 5.91863 20.7695 6.38895C20.5409 7.33197 20.207 8.57839 19.7834 9.80974C19.3556 11.0532 18.8544 12.2271 18.3065 13.0569C17.7102 13.9599 17.2868 14.1223 17.081 14.1037L16.919 15.8963C18.2258 16.0145 19.1837 14.9951 19.8086 14.0488C20.4818 13.0292 21.0414 11.6861 21.4855 10.3953C21.9337 9.09249 22.2826 7.78765 22.5188 6.81295C22.6373 6.32441 22.728 5.91609 22.7894 5.62895C22.8201 5.48533 22.8434 5.37187 22.8592 5.29369C22.8671 5.2546 22.8732 5.22431 22.8773 5.20347C22.8793 5.19304 22.8809 5.18498 22.882 5.17936C22.8825 5.17655 22.883 5.17435 22.8833 5.17276C22.8834 5.17197 22.8835 5.17134 22.8836 5.17086C22.8837 5.17062 22.8837 5.17038 22.8837 5.17026C22.8838 5.17005 22.8838 5.16989 22 5ZM17.081 14.1037C16.4434 14.046 16.113 13.5977 15.5262 12.5809C15.0351 11.7301 14.2925 10.3186 12.6124 10.1071L12.3876 11.8929C13.0404 11.9752 13.3768 12.4578 13.9672 13.4807C14.4617 14.3375 15.2148 15.7423 16.919 15.8963L17.081 14.1037Z" fill="#2C384F"/>
</svg>
