<svg width="10" height="19" viewBox="0 0 10 19" fill="none" xmlns="http://www.w3.org/2000/svg">
<path d="M5 14.5C5 15.8807 3.88071 19 2.5 19C1.11929 19 0 15.8807 0 14.5C0 13.1193 1.11929 12 2.5 12C3.88071 12 5 13.1193 5 14.5Z" fill="white"/>
<circle cx="2.5" cy="14.5" r="1.5" fill="white"/>
<path d="M10 2.5C10 3.88071 8.88071 7 7.5 7C6.11929 7 5 3.88071 5 2.5C5 1.11929 6.11929 0 7.5 0C8.88071 0 10 1.11929 10 2.5Z" fill="white"/>
<circle cx="7.5" cy="2.5" r="1.5" fill="transparent"/>
<path d="M4.5 17C8.71607 13.5879 1.00001 9 7.50001 6.5" stroke="white" stroke-linecap="round" stroke-dasharray="2 2"/>
</svg>
