<svg width="26" height="26" viewBox="0 0 26 26" fill="none" xmlns="http://www.w3.org/2000/svg">
<path d="M25.6821 24.1515L19.2157 17.6851C20.9779 15.5299 21.8443 12.7798 21.6357 10.0038C21.4271 7.22769 20.1595 4.63798 18.0951 2.7703C16.0306 0.902627 13.3273 -0.100126 10.5443 -0.0305419C7.76127 0.0390426 5.11145 1.17564 3.14293 3.14416C1.17442 5.11267 0.0378219 7.76249 -0.0317626 10.5455C-0.101347 13.3285 0.901406 16.0319 2.76908 18.0963C4.63676 20.1607 7.22647 21.4283 10.0025 21.6369C12.7786 21.8455 15.5287 20.9791 17.6839 19.2169L24.1503 25.6833C24.3546 25.8807 24.6282 25.9899 24.9123 25.9874C25.1963 25.9849 25.4681 25.871 25.6689 25.6701C25.8698 25.4693 25.9837 25.1976 25.9862 24.9135C25.9886 24.6295 25.8794 24.3558 25.6821 24.1515ZM10.8329 19.5007C9.11875 19.5007 7.44314 18.9925 6.01791 18.0401C4.59268 17.0878 3.48186 15.7343 2.8259 14.1507C2.16994 12.567 1.99831 10.8245 2.33271 9.14329C2.66712 7.46212 3.49254 5.91787 4.70459 4.70582C5.91665 3.49376 7.4609 2.66834 9.14207 2.33393C10.8232 1.99953 12.5658 2.17116 14.1494 2.82712C15.7331 3.48308 17.0866 4.59391 18.0389 6.01913C18.9912 7.44436 19.4995 9.11997 19.4995 10.8341C19.4969 13.1318 18.583 15.3347 16.9583 16.9595C15.3335 18.5842 13.1306 19.4982 10.8329 19.5007Z" fill="#ffffff"/>
</svg>
