<svg width="15" height="18" viewBox="0 0 15 18" fill="none" xmlns="http://www.w3.org/2000/svg">
<path d="M13.1512 2.34152L11.9093 1.09802C11.5618 0.748749 11.1484 0.471869 10.6932 0.283398C10.238 0.094927 9.74994 -0.00139199 9.25725 1.51991e-05H4.5C3.5058 0.00120609 2.55267 0.396677 1.84966 1.09968C1.14666 1.80268 0.751191 2.75582 0.75 3.75002V14.25C0.751191 15.2442 1.14666 16.1973 1.84966 16.9004C2.55267 17.6034 3.5058 17.9988 4.5 18H10.5C11.4942 17.9988 12.4473 17.6034 13.1503 16.9004C13.8533 16.1973 14.2488 15.2442 14.25 14.25V4.99277C14.2512 4.50015 14.1547 4.01219 13.9661 3.55711C13.7775 3.10203 13.5006 2.68886 13.1512 2.34152ZM12.0907 3.40202C12.1971 3.508 12.2924 3.62461 12.375 3.75002H10.5V1.87502C10.6252 1.95851 10.742 2.05395 10.8488 2.16002L12.0907 3.40202ZM12.75 14.25C12.75 14.8468 12.5129 15.4191 12.091 15.841C11.669 16.263 11.0967 16.5 10.5 16.5H4.5C3.90326 16.5 3.33097 16.263 2.90901 15.841C2.48705 15.4191 2.25 14.8468 2.25 14.25V3.75002C2.25 3.15328 2.48705 2.58098 2.90901 2.15903C3.33097 1.73707 3.90326 1.50002 4.5 1.50002H9V3.75002C9 4.14784 9.15804 4.52937 9.43934 4.81068C9.72064 5.09198 10.1022 5.25002 10.5 5.25002H12.75V14.25ZM10.5 6.75002C10.6989 6.75002 10.8897 6.82903 11.0303 6.96969C11.171 7.11034 11.25 7.3011 11.25 7.50002C11.25 7.69893 11.171 7.88969 11.0303 8.03035C10.8897 8.171 10.6989 8.25002 10.5 8.25002H4.5C4.30109 8.25002 4.11032 8.171 3.96967 8.03035C3.82902 7.88969 3.75 7.69893 3.75 7.50002C3.75 7.3011 3.82902 7.11034 3.96967 6.96969C4.11032 6.82903 4.30109 6.75002 4.5 6.75002H10.5ZM11.25 10.5C11.25 10.6989 11.171 10.8897 11.0303 11.0303C10.8897 11.171 10.6989 11.25 10.5 11.25H4.5C4.30109 11.25 4.11032 11.171 3.96967 11.0303C3.82902 10.8897 3.75 10.6989 3.75 10.5C3.75 10.3011 3.82902 10.1103 3.96967 9.96969C4.11032 9.82903 4.30109 9.75002 4.5 9.75002H10.5C10.6989 9.75002 10.8897 9.82903 11.0303 9.96969C11.171 10.1103 11.25 10.3011 11.25 10.5ZM11.106 13.0598C11.2226 13.2202 11.2709 13.4202 11.2404 13.6161C11.2099 13.812 11.1031 13.9879 10.9432 14.1053C10.1834 14.6467 9.28335 14.9574 8.35125 15C7.80666 14.9974 7.27861 14.8126 6.85125 14.475C6.60525 14.3063 6.5115 14.25 6.32625 14.25C5.82482 14.3276 5.35171 14.5327 4.95225 14.8455C4.79381 14.9585 4.59768 15.0054 4.40527 14.9765C4.21286 14.9475 4.03924 14.8449 3.92106 14.6903C3.80289 14.5357 3.74942 14.3413 3.77194 14.148C3.79445 13.9547 3.8912 13.7778 4.04175 13.6545C4.70263 13.1415 5.49621 12.8277 6.32925 12.75C6.82885 12.758 7.31184 12.9307 7.70325 13.2413C7.88166 13.4017 8.11137 13.4935 8.35125 13.5C8.96451 13.4541 9.55423 13.2446 10.059 12.8933C10.22 12.7766 10.4206 12.7286 10.617 12.7598C10.8133 12.791 10.9892 12.8989 11.106 13.0598Z" fill="#374957"/>
</svg>
