<svg width="24" height="34" viewBox="0 0 24 34" fill="none" xmlns="http://www.w3.org/2000/svg">
<path d="M8.51491 6.65057V5.60298L11.6009 0.727273H12.4744V2.21875H11.9418L9.86435 5.51065V5.56747H14.1719V6.65057H8.51491ZM11.9844 8V6.33097L11.9986 5.86222V0.727273H13.2415V8H11.9844ZM21.0496 3.04972C20.9905 2.85795 20.9088 2.68632 20.8046 2.5348C20.7028 2.38092 20.5797 2.24953 20.4353 2.14062C20.2933 2.03172 20.1299 1.95005 19.9452 1.8956C19.7606 1.83878 19.5594 1.81037 19.3415 1.81037C18.9509 1.81037 18.6029 1.90862 18.2975 2.10511C17.9921 2.30161 17.7518 2.59044 17.5766 2.97159C17.4038 3.35038 17.3174 3.81203 17.3174 4.35653C17.3174 4.90578 17.4038 5.37098 17.5766 5.75213C17.7495 6.13329 17.9897 6.4233 18.2975 6.62216C18.6053 6.81866 18.9628 6.9169 19.37 6.9169C19.7393 6.9169 20.0589 6.84588 20.3288 6.70384C20.601 6.56179 20.8105 6.36056 20.9573 6.10014C21.1041 5.83736 21.1775 5.52959 21.1775 5.17685L21.4758 5.22301H19.5013V4.19318H22.4523V5.06676C22.4523 5.68939 22.3198 6.22798 22.0546 6.68253C21.7895 7.13707 21.4249 7.48745 20.9609 7.73366C20.4969 7.97751 19.9642 8.09943 19.3629 8.09943C18.6929 8.09943 18.1046 7.9491 17.5979 7.64844C17.0937 7.34541 16.6995 6.91572 16.4154 6.35938C16.1337 5.80066 15.9928 5.13778 15.9928 4.37074C15.9928 3.78362 16.0757 3.25923 16.2414 2.79759C16.4095 2.33594 16.6439 1.94413 16.9445 1.62216C17.2452 1.29782 17.5979 1.05161 18.0028 0.883523C18.4076 0.713068 18.8479 0.627841 19.3238 0.627841C19.7263 0.627841 20.1015 0.687026 20.4495 0.805398C20.7975 0.921401 21.1065 1.08712 21.3763 1.30256C21.6486 1.51799 21.8723 1.77367 22.0475 2.0696C22.2227 2.36553 22.3375 2.69223 22.392 3.04972H21.0496Z" fill="#374957"/>
<g clip-path="url(#clip0_1135_22474)">
<path d="M10.5858 17.5858C10.9609 17.2107 11.4696 17 12 17C12.5304 17 13.0391 17.2107 13.4142 17.5858C13.7893 17.9609 14 18.4696 14 19V31C14 31.5304 13.7893 32.0391 13.4142 32.4142C13.0391 32.7893 12.5304 33 12 33C11.4696 33 10.9609 32.7893 10.5858 32.4142C10.2107 32.0391 10 31.5304 10 31V19C10 18.4696 10.2107 17.9609 10.5858 17.5858Z" fill="#2FD886" stroke="#2FD886" stroke-width="2"/>
<path d="M21 10C20.2044 10 19.4413 10.3161 18.8787 10.8787C18.3161 11.4413 18 12.2044 18 13V31C18 31.7956 18.3161 32.5587 18.8787 33.1213C19.4413 33.6839 20.2044 34 21 34C21.7956 34 22.5587 33.6839 23.1213 33.1213C23.6839 32.5587 24 31.7956 24 31V13C24 12.2044 23.6839 11.4413 23.1213 10.8787C22.5587 10.3161 21.7956 10 21 10V10ZM22 31C22 31.2652 21.8946 31.5196 21.7071 31.7071C21.5196 31.8946 21.2652 32 21 32C20.7348 32 20.4804 31.8946 20.2929 31.7071C20.1054 31.5196 20 31.2652 20 31V13C20 12.7348 20.1054 12.4804 20.2929 12.2929C20.4804 12.1054 20.7348 12 21 12C21.2652 12 21.5196 12.1054 21.7071 12.2929C21.8946 12.4804 22 12.7348 22 13V31Z" fill="#2FD886"/>
<path d="M21 10.5C20.2044 10.5 19.4413 10.9039 18.8787 11.6228C18.3161 12.3416 18 13.3167 18 14.3333V29.6667C18 30.6833 18.3161 31.6584 18.8787 32.3772C19.4413 33.0961 20.2044 33.5 21 33.5C21.7956 33.5 22.5587 33.0961 23.1213 32.3772C23.6839 31.6584 24 30.6833 24 29.6667V14.3333C24 13.3167 23.6839 12.3416 23.1213 11.6228C22.5587 10.9039 21.7956 10.5 21 10.5Z" fill="#2FD886"/>
<path d="M1.58579 23.5858C1.96086 23.2107 2.46957 23 3 23C3.53043 23 4.03914 23.2107 4.41421 23.5858C4.78929 23.9609 5 24.4696 5 25V31C5 31.5304 4.78929 32.0391 4.41421 32.4142C4.03914 32.7893 3.53043 33 3 33C2.46957 33 1.96086 32.7893 1.58579 32.4142C1.21071 32.0391 1 31.5304 1 31V25C1 24.4696 1.21071 23.9609 1.58579 23.5858Z" fill="#2FD886" stroke="#2FD886" stroke-width="2"/>
</g>
<defs>
<clipPath id="clip0_1135_22474">
<rect width="24" height="24" fill="white" transform="translate(0 10)"/>
</clipPath>
</defs>
</svg>
