<svg width="24" height="34" viewBox="0 0 24 34" fill="none" xmlns="http://www.w3.org/2000/svg">
<g clip-path="url(#clip0_1135_22466)">
<path d="M12 16C11.2044 16 10.4413 16.3161 9.87868 16.8787C9.31607 17.4413 9 18.2044 9 19V31C9 31.7956 9.31607 32.5587 9.87868 33.1213C10.4413 33.6839 11.2044 34 12 34C12.7956 34 13.5587 33.6839 14.1213 33.1213C14.6839 32.5587 15 31.7956 15 31V19C15 18.2044 14.6839 17.4413 14.1213 16.8787C13.5587 16.3161 12.7956 16 12 16Z" fill="#FF9900"/>
<path d="M21 10C20.2044 10 19.4413 10.3161 18.8787 10.8787C18.3161 11.4413 18 12.2044 18 13V31C18 31.7956 18.3161 32.5587 18.8787 33.1213C19.4413 33.6839 20.2044 34 21 34C21.7956 34 22.5587 33.6839 23.1213 33.1213C23.6839 32.5587 24 31.7956 24 31V13C24 12.2044 23.6839 11.4413 23.1213 10.8787C22.5587 10.3161 21.7956 10 21 10V10ZM22 31C22 31.2652 21.8946 31.5196 21.7071 31.7071C21.5196 31.8946 21.2652 32 21 32C20.7348 32 20.4804 31.8946 20.2929 31.7071C20.1054 31.5196 20 31.2652 20 31V13C20 12.7348 20.1054 12.4804 20.2929 12.2929C20.4804 12.1054 20.7348 12 21 12C21.2652 12 21.5196 12.1054 21.7071 12.2929C21.8946 12.4804 22 12.7348 22 13V31Z" fill="#FF9900"/>
<path d="M3 22C2.20435 22 1.44129 22.3161 0.87868 22.8787C0.31607 23.4413 0 24.2044 0 25L0 31C0 31.7956 0.31607 32.5587 0.87868 33.1213C1.44129 33.6839 2.20435 34 3 34C3.79565 34 4.55871 33.6839 5.12132 33.1213C5.68393 32.5587 6 31.7956 6 31V25C6 24.2044 5.68393 23.4413 5.12132 22.8787C4.55871 22.3161 3.79565 22 3 22Z" fill="#FF9900"/>
</g>
<path d="M8.50593 6.65057V5.60298L11.5919 0.727273H12.4654V2.21875H11.9328L9.85536 5.51065V5.56747H14.1629V6.65057H8.50593ZM11.9754 8V6.33097L11.9896 5.86222V0.727273H13.2325V8H11.9754ZM21.0407 3.04972C20.9815 2.85795 20.8998 2.68632 20.7956 2.5348C20.6938 2.38092 20.5707 2.24953 20.4263 2.14062C20.2843 2.03172 20.1209 1.95005 19.9363 1.8956C19.7516 1.83878 19.5504 1.81037 19.3326 1.81037C18.9419 1.81037 18.5939 1.90862 18.2885 2.10511C17.9831 2.30161 17.7428 2.59044 17.5676 2.97159C17.3948 3.35038 17.3084 3.81203 17.3084 4.35653C17.3084 4.90578 17.3948 5.37098 17.5676 5.75213C17.7405 6.13329 17.9808 6.4233 18.2885 6.62216C18.5963 6.81866 18.9538 6.9169 19.361 6.9169C19.7303 6.9169 20.0499 6.84588 20.3198 6.70384C20.592 6.56179 20.8016 6.36056 20.9483 6.10014C21.0951 5.83736 21.1685 5.52959 21.1685 5.17685L21.4668 5.22301H19.4924V4.19318H22.4434V5.06676C22.4434 5.68939 22.3108 6.22798 22.0456 6.68253C21.7805 7.13707 21.4159 7.48745 20.9519 7.73366C20.4879 7.97751 19.9552 8.09943 19.3539 8.09943C18.6839 8.09943 18.0956 7.9491 17.589 7.64844C17.0847 7.34541 16.6905 6.91572 16.4064 6.35938C16.1247 5.80066 15.9838 5.13778 15.9838 4.37074C15.9838 3.78362 16.0667 3.25923 16.2324 2.79759C16.4005 2.33594 16.6349 1.94413 16.9355 1.62216C17.2362 1.29782 17.589 1.05161 17.9938 0.883523C18.3986 0.713068 18.839 0.627841 19.3148 0.627841C19.7173 0.627841 20.0925 0.687026 20.4405 0.805398C20.7885 0.921401 21.0975 1.08712 21.3674 1.30256C21.6396 1.51799 21.8633 1.77367 22.0385 2.0696C22.2137 2.36553 22.3285 2.69223 22.383 3.04972H21.0407Z" fill="#374957"/>
<defs>
<clipPath id="clip0_1135_22466">
<rect width="24" height="24" fill="white" transform="translate(0 10)"/>
</clipPath>
</defs>
</svg>
