<svg width="24" height="24" viewBox="0 0 24 24" fill="none" xmlns="http://www.w3.org/2000/svg">
<g clip-path="url(#clip0_1918_20364)">
<path d="M23.9001 11.4371C23.5072 8.41248 21.9773 5.65099 19.6214 3.7139C17.2655 1.77681 14.2605 0.80947 11.217 1.00851C8.17347 1.20754 5.31996 2.55802 3.23644 4.78544C1.15291 7.01286 -0.00428024 9.95007 7.4054e-05 13.0001C-0.00569035 14.6326 0.325132 16.2488 0.971889 17.7477C1.61865 19.2467 2.56745 20.5962 3.75907 21.7121C4.67041 22.5558 5.87123 23.017 7.11307 23.0001H16.8801C18.192 23.0031 19.4525 22.4898 20.3891 21.5711C21.7238 20.2725 22.7364 18.6799 23.346 16.9203C23.9556 15.1607 24.1453 13.283 23.9001 11.4371ZM18.9911 20.1371C18.4284 20.6914 17.6699 21.0015 16.8801 21.0001H7.11307C6.38235 21.0151 5.67357 20.7499 5.13207 20.2591C4.13935 19.3292 3.3489 18.2047 2.81003 16.9558C2.27116 15.7068 1.99544 14.3603 2.00007 13.0001C2.00106 11.5923 2.29885 10.2006 2.87401 8.91566C3.44918 7.63076 4.28879 6.48157 5.33807 5.54306C7.16122 3.89897 9.53111 2.99243 11.9861 3.00006C12.3783 3.00022 12.7703 3.02226 13.1601 3.06606C15.0357 3.2839 16.8112 4.02862 18.281 5.21398C19.7508 6.39934 20.8547 7.97684 21.4649 9.76375C22.0751 11.5507 22.1666 13.4739 21.7287 15.3106C21.2909 17.1474 20.3417 18.8225 18.9911 20.1421V20.1371ZM7.80707 17.2851C7.9967 17.4707 8.10482 17.7241 8.10763 17.9895C8.11044 18.2548 8.00773 18.5104 7.82207 18.7001C7.63642 18.8897 7.38304 18.9978 7.11768 19.0006C6.85232 19.0034 6.5967 18.9007 6.40707 18.7151C5.27203 17.6032 4.49377 16.1786 4.17148 14.6228C3.8492 13.067 3.99749 11.4504 4.59746 9.97918C5.19743 8.50795 6.22189 7.2487 7.54027 6.36194C8.85865 5.47518 10.4112 5.00107 12.0001 5.00006C12.3825 4.99995 12.7645 5.02702 13.1431 5.08106C13.2731 5.0998 13.3982 5.14398 13.5111 5.21108C13.624 5.27817 13.7227 5.36686 13.8013 5.47207C13.88 5.57729 13.9371 5.69697 13.9695 5.82429C14.0019 5.9516 14.0089 6.08405 13.9901 6.21406C13.9729 6.34479 13.9297 6.47075 13.863 6.58455C13.7964 6.69834 13.7077 6.79766 13.6022 6.87667C13.4966 6.95568 13.3763 7.01278 13.2483 7.04462C13.1204 7.07646 12.9874 7.08239 12.8571 7.06206C11.6056 6.8833 10.3296 7.10442 9.21117 7.69386C8.09278 8.28331 7.18915 9.21095 6.62923 10.3444C6.06932 11.4779 5.88174 12.7592 6.09325 14.0056C6.30477 15.252 6.90457 16.3998 7.80707 17.2851ZM19.9191 11.8571C19.9731 12.2357 20.0002 12.6176 20.0001 13.0001C20.0033 14.0657 19.7918 15.1211 19.378 16.1032C18.9643 17.0853 18.3569 17.9739 17.5921 18.7161C17.4022 18.9017 17.1463 19.0043 16.8808 19.0013C16.6152 18.9983 16.3617 18.89 16.1761 18.7001C15.9904 18.5102 15.8878 18.2543 15.8908 17.9887C15.8938 17.7232 16.0022 17.4697 16.1921 17.2841C16.8677 16.6255 17.378 15.8164 17.6811 14.9229C17.9842 14.0294 18.0716 13.0768 17.9361 12.1431C17.8981 11.8804 17.9661 11.6134 18.1251 11.4008C18.284 11.1882 18.5209 11.0475 18.7836 11.0096C19.0463 10.9716 19.3133 11.0396 19.5258 11.1986C19.7384 11.3575 19.8791 11.5944 19.9171 11.8571H19.9191ZM13.9261 12.4881C14.0464 12.9208 14.0201 13.3812 13.8511 13.7974C13.6821 14.2136 13.3801 14.5621 12.9922 14.7886C12.6043 15.015 12.1523 15.1065 11.7068 15.049C11.2613 14.9914 10.8475 14.7879 10.5298 14.4703C10.2122 14.1527 10.0087 13.7388 9.95117 13.2933C9.89359 12.8479 9.98516 12.3959 10.2116 12.0079C10.438 11.62 10.7865 11.318 11.2027 11.149C11.6189 10.9801 12.0793 10.9537 12.5121 11.0741L16.2931 7.29306C16.3853 7.19755 16.4957 7.12137 16.6177 7.06896C16.7397 7.01655 16.8709 6.98896 17.0037 6.98781C17.1365 6.98666 17.2681 7.01196 17.391 7.06224C17.5139 7.11252 17.6256 7.18677 17.7195 7.28066C17.8134 7.37456 17.8876 7.48621 17.9379 7.60911C17.9882 7.732 18.0135 7.86368 18.0123 7.99646C18.0112 8.12924 17.9836 8.26046 17.9312 8.38246C17.8788 8.50447 17.8026 8.61481 17.7071 8.70706L13.9261 12.4881Z" fill="#374957"/>
</g>
<defs>
<clipPath id="clip0_1918_20364">
<rect width="24" height="24" fill="white"/>
</clipPath>
</defs>
</svg>
