<svg width="28" height="28" viewBox="0 0 28 28" fill="none" xmlns="http://www.w3.org/2000/svg">
<g clip-path="url(#clip0_1918_19634)">
<path d="M19.834 9.3346H8.16732V8.16793C8.16696 6.87457 8.59645 5.61776 9.38825 4.5951C10.1801 3.57244 11.2893 2.84193 12.5415 2.51841C13.7938 2.1949 15.118 2.29673 16.3061 2.80789C17.4942 3.31906 18.4787 4.21057 19.1048 5.34226C19.1792 5.47624 19.2792 5.59426 19.3992 5.68958C19.5192 5.7849 19.6568 5.85565 19.8042 5.89779C19.9515 5.93993 20.1057 5.95264 20.2579 5.93519C20.4102 5.91774 20.5575 5.87048 20.6915 5.7961C20.8255 5.72171 20.9435 5.62167 21.0388 5.50168C21.1341 5.38168 21.2049 5.24409 21.247 5.09675C21.2892 4.94942 21.3019 4.79523 21.2844 4.64298C21.267 4.49073 21.2197 4.34341 21.1453 4.20943C20.2683 2.62546 18.8898 1.37783 17.2265 0.662661C15.5632 -0.0525126 13.7094 -0.19468 11.9565 0.258507C10.2036 0.711693 8.65098 1.73454 7.54272 3.16626C6.43445 4.59797 5.83338 6.35739 5.83398 8.16793V9.82926C4.7949 10.2828 3.91049 11.0292 3.2889 11.9773C2.66731 12.9255 2.33548 14.0342 2.33398 15.1679V22.1679C2.33584 23.7145 2.95101 25.1971 4.04457 26.2907C5.13814 27.3842 6.62079 27.9994 8.16732 28.0013H19.834C21.3805 27.9994 22.8632 27.3842 23.9567 26.2907C25.0503 25.1971 25.6655 23.7145 25.6673 22.1679V15.1679C25.6655 13.6214 25.0503 12.1387 23.9567 11.0452C22.8632 9.95162 21.3805 9.33645 19.834 9.3346ZM23.334 22.1679C23.334 23.0962 22.9652 23.9864 22.3089 24.6428C21.6525 25.2992 20.7622 25.6679 19.834 25.6679H8.16732C7.23906 25.6679 6.34882 25.2992 5.69244 24.6428C5.03607 23.9864 4.66732 23.0962 4.66732 22.1679V15.1679C4.66732 14.2397 5.03607 13.3494 5.69244 12.6931C6.34882 12.0367 7.23906 11.6679 8.16732 11.6679H19.834C20.7622 11.6679 21.6525 12.0367 22.3089 12.6931C22.9652 13.3494 23.334 14.2397 23.334 15.1679V22.1679Z" fill="white"/>
<path d="M14.0007 16.334C13.6912 16.334 13.3945 16.4569 13.1757 16.6757C12.9569 16.8945 12.834 17.1912 12.834 17.5006V19.834C12.834 20.1434 12.9569 20.4401 13.1757 20.6589C13.3945 20.8777 13.6912 21.0006 14.0007 21.0006C14.3101 21.0006 14.6068 20.8777 14.8256 20.6589C15.0444 20.4401 15.1673 20.1434 15.1673 19.834V17.5006C15.1673 17.1912 15.0444 16.8945 14.8256 16.6757C14.6068 16.4569 14.3101 16.334 14.0007 16.334Z" fill="white"/>
</g>
<defs>
<clipPath id="clip0_1918_19634">
<rect width="28" height="28" fill="white"/>
</clipPath>
</defs>
</svg>
