<svg width="28" height="28" viewBox="0 0 28 28" fill="none" xmlns="http://www.w3.org/2000/svg">
<g clip-path="url(#clip0_1135_23070)">
<path d="M19.834 9.33435H8.16732V8.16769C8.16696 6.87432 8.59645 5.61751 9.38825 4.59485C10.1801 3.5722 11.2893 2.84168 12.5415 2.51817C13.7938 2.19465 15.118 2.29648 16.3061 2.80765C17.4942 3.31881 18.4787 4.21032 19.1048 5.34202C19.1792 5.476 19.2792 5.59402 19.3992 5.68934C19.5192 5.78465 19.6568 5.8554 19.8042 5.89754C19.9515 5.93969 20.1057 5.9524 20.2579 5.93495C20.4102 5.9175 20.5575 5.87023 20.6915 5.79585C20.8255 5.72147 20.9435 5.62142 21.0388 5.50143C21.1341 5.38144 21.2049 5.24385 21.247 5.09651C21.2892 4.94917 21.3019 4.79498 21.2844 4.64273C21.267 4.49049 21.2197 4.34317 21.1453 4.20919C20.2683 2.62522 18.8898 1.37759 17.2265 0.662417C15.5632 -0.0527567 13.7094 -0.194924 11.9565 0.258262C10.2036 0.711449 8.65098 1.73429 7.54272 3.16601C6.43445 4.59773 5.83338 6.35714 5.83398 8.16769V9.82902C4.7949 10.2825 3.91049 11.029 3.2889 11.9771C2.66731 12.9252 2.33548 14.034 2.33398 15.1677V22.1677C2.33584 23.7142 2.95101 25.1969 4.04457 26.2904C5.13814 27.384 6.62079 27.9992 8.16732 28.001H19.834C21.3805 27.9992 22.8632 27.384 23.9567 26.2904C25.0503 25.1969 25.6655 23.7142 25.6673 22.1677V15.1677C25.6655 13.6212 25.0503 12.1385 23.9567 11.0449C22.8632 9.95138 21.3805 9.3362 19.834 9.33435ZM23.334 22.1677C23.334 23.0959 22.9652 23.9862 22.3089 24.6426C21.6525 25.2989 20.7622 25.6677 19.834 25.6677H8.16732C7.23906 25.6677 6.34882 25.2989 5.69244 24.6426C5.03607 23.9862 4.66732 23.0959 4.66732 22.1677V15.1677C4.66732 14.2394 5.03607 13.3492 5.69244 12.6928C6.34882 12.0364 7.23906 11.6677 8.16732 11.6677H19.834C20.7622 11.6677 21.6525 12.0364 22.3089 12.6928C22.9652 13.3492 23.334 14.2394 23.334 15.1677V22.1677Z" fill="#FF9900"/>
<path d="M14.0007 16.334C13.6912 16.334 13.3945 16.4569 13.1757 16.6757C12.9569 16.8945 12.834 17.1912 12.834 17.5006V19.834C12.834 20.1434 12.9569 20.4401 13.1757 20.6589C13.3945 20.8777 13.6912 21.0006 14.0007 21.0006C14.3101 21.0006 14.6068 20.8777 14.8256 20.6589C15.0444 20.4401 15.1673 20.1434 15.1673 19.834V17.5006C15.1673 17.1912 15.0444 16.8945 14.8256 16.6757C14.6068 16.4569 14.3101 16.334 14.0007 16.334Z" fill="#FF9900"/>
</g>
<defs>
<clipPath id="clip0_1135_23070">
<rect width="28" height="28" fill="white"/>
</clipPath>
</defs>
</svg>
