<svg width="24" height="34" viewBox="0 0 24 34" fill="none" xmlns="http://www.w3.org/2000/svg">
<path d="M7.51097 3.04972C7.45179 2.85795 7.37011 2.68632 7.26594 2.5348C7.16415 2.38092 7.04104 2.24953 6.89663 2.14062C6.75458 2.03172 6.59123 1.95005 6.40657 1.8956C6.22191 1.83878 6.02068 1.81037 5.80288 1.81037C5.41225 1.81037 5.06424 1.90862 4.75884 2.10511C4.45344 2.30161 4.21315 2.59044 4.03796 2.97159C3.86514 3.35038 3.77873 3.81203 3.77873 4.35653C3.77873 4.90578 3.86514 5.37098 4.03796 5.75213C4.21078 6.13329 4.45108 6.4233 4.75884 6.62216C5.06661 6.81866 5.42409 6.9169 5.83129 6.9169C6.2006 6.9169 6.52021 6.84588 6.79009 6.70384C7.06235 6.56179 7.27186 6.36056 7.41864 6.10014C7.56542 5.83736 7.63881 5.52959 7.63881 5.17685L7.93711 5.22301H5.96268V4.19318H8.91367V5.06676C8.91367 5.68939 8.7811 6.22798 8.51594 6.68253C8.25079 7.13707 7.88621 7.48745 7.42219 7.73366C6.95818 7.97751 6.42551 8.09943 5.82418 8.09943C5.1542 8.09943 4.5659 7.9491 4.05927 7.64844C3.55501 7.34541 3.16083 6.91572 2.87674 6.35938C2.59502 5.80066 2.45415 5.13778 2.45415 4.37074C2.45415 3.78362 2.53701 3.25923 2.70273 2.79759C2.87082 2.33594 3.1052 1.94413 3.40586 1.62216C3.70652 1.29782 4.05927 1.05161 4.4641 0.883523C4.86893 0.713068 5.30927 0.627841 5.78512 0.627841C6.18758 0.627841 6.56282 0.687026 6.91083 0.805398C7.25884 0.921401 7.56779 1.08712 7.83768 1.30256C8.10993 1.51799 8.33365 1.77367 8.50884 2.0696C8.68403 2.36553 8.79885 2.69223 8.8533 3.04972H7.51097ZM10.9876 8V0.727273H13.7149C14.2736 0.727273 14.7424 0.831439 15.1212 1.03977C15.5023 1.24811 15.79 1.53456 15.9841 1.89915C16.1806 2.26136 16.2788 2.6733 16.2788 3.13494C16.2788 3.60133 16.1806 4.01562 15.9841 4.37784C15.7876 4.74006 15.4976 5.02533 15.1141 5.23366C14.7305 5.43963 14.2582 5.54261 13.6972 5.54261H11.8896V4.45952H13.5196C13.8463 4.45952 14.1138 4.4027 14.3222 4.28906C14.5305 4.17543 14.6844 4.01918 14.7838 3.82031C14.8856 3.62145 14.9365 3.39299 14.9365 3.13494C14.9365 2.87689 14.8856 2.64962 14.7838 2.45312C14.6844 2.25663 14.5293 2.10393 14.3186 1.99503C14.1103 1.88376 13.8416 1.82812 13.5125 1.82812H12.3051V8H10.9876ZM22.1756 2.72656C22.1425 2.41643 22.0028 2.17495 21.7566 2.00213C21.5127 1.82931 21.1955 1.7429 20.8049 1.7429C20.5302 1.7429 20.2947 1.78433 20.0982 1.86719C19.9017 1.95005 19.7514 2.0625 19.6472 2.20455C19.543 2.34659 19.4898 2.50876 19.4874 2.69105C19.4874 2.84257 19.5217 2.97396 19.5904 3.08523C19.6614 3.1965 19.7573 3.29119 19.878 3.36932C19.9988 3.44508 20.1325 3.509 20.2793 3.56108C20.4261 3.61316 20.574 3.65696 20.7232 3.69247L21.405 3.86293C21.6796 3.92685 21.9436 4.01326 22.1969 4.12216C22.4526 4.23106 22.681 4.36837 22.8823 4.53409C23.0859 4.69981 23.2469 4.89986 23.3652 5.13423C23.4836 5.36861 23.5428 5.64323 23.5428 5.9581C23.5428 6.38423 23.4339 6.75947 23.2161 7.08381C22.9983 7.40578 22.6834 7.65791 22.2715 7.8402C21.8619 8.02012 21.3659 8.11009 20.7836 8.11009C20.2177 8.11009 19.7265 8.02249 19.3098 7.8473C18.8955 7.67211 18.5712 7.41643 18.3368 7.08026C18.1048 6.74408 17.9793 6.33452 17.9604 5.85156H19.2566C19.2755 6.10488 19.3536 6.31558 19.4909 6.48366C19.6283 6.65175 19.807 6.77723 20.0272 6.86009C20.2497 6.94295 20.4983 6.98438 20.7729 6.98438C21.0594 6.98438 21.3103 6.94176 21.5257 6.85653C21.7435 6.76894 21.914 6.6482 22.0371 6.49432C22.1602 6.33807 22.223 6.15578 22.2253 5.94744C22.223 5.75805 22.1673 5.6018 22.0584 5.47869C21.9495 5.35322 21.7968 5.24905 21.6003 5.16619C21.4062 5.08097 21.1789 5.00521 20.9185 4.93892L20.0911 4.72585C19.4921 4.57197 19.0186 4.33878 18.6706 4.02628C18.325 3.71141 18.1522 3.29356 18.1522 2.77273C18.1522 2.34422 18.2682 1.96899 18.5002 1.64702C18.7346 1.32505 19.053 1.07528 19.4554 0.897727C19.8579 0.717803 20.3136 0.627841 20.8226 0.627841C21.3387 0.627841 21.7909 0.717803 22.1792 0.897727C22.5698 1.07528 22.8764 1.32268 23.0989 1.63991C23.3214 1.95478 23.4363 2.317 23.4434 2.72656H22.1756Z" fill="#374957"/>
<g clip-path="url(#clip0_1135_22449)">
<path d="M10.5858 17.5858C10.9609 17.2107 11.4696 17 12 17C12.5304 17 13.0391 17.2107 13.4142 17.5858C13.7893 17.9609 14 18.4696 14 19V31C14 31.5304 13.7893 32.0391 13.4142 32.4142C13.0391 32.7893 12.5304 33 12 33C11.4696 33 10.9609 32.7893 10.5858 32.4142C10.2107 32.0391 10 31.5304 10 31V19C10 18.4696 10.2107 17.9609 10.5858 17.5858Z" stroke="#EA4335" stroke-width="2"/>
<path d="M21 10C20.2044 10 19.4413 10.3161 18.8787 10.8787C18.3161 11.4413 18 12.2044 18 13V31C18 31.7956 18.3161 32.5587 18.8787 33.1213C19.4413 33.6839 20.2044 34 21 34C21.7956 34 22.5587 33.6839 23.1213 33.1213C23.6839 32.5587 24 31.7956 24 31V13C24 12.2044 23.6839 11.4413 23.1213 10.8787C22.5587 10.3161 21.7956 10 21 10V10ZM22 31C22 31.2652 21.8946 31.5196 21.7071 31.7071C21.5196 31.8946 21.2652 32 21 32C20.7348 32 20.4804 31.8946 20.2929 31.7071C20.1054 31.5196 20 31.2652 20 31V13C20 12.7348 20.1054 12.4804 20.2929 12.2929C20.4804 12.1054 20.7348 12 21 12C21.2652 12 21.5196 12.1054 21.7071 12.2929C21.8946 12.4804 22 12.7348 22 13V31Z" fill="#EA4335"/>
<path d="M19.6662 12.2391C20.0708 11.722 20.5597 11.5 21 11.5C21.4403 11.5 21.9292 11.722 22.3338 12.2391C22.7431 12.762 23 13.5132 23 14.3333V29.6667C23 30.4868 22.7431 31.238 22.3338 31.7609C21.9292 32.278 21.4403 32.5 21 32.5C20.5597 32.5 20.0708 32.278 19.6662 31.7609C19.2569 31.238 19 30.4868 19 29.6667V14.3333C19 13.5132 19.2569 12.762 19.6662 12.2391Z" stroke="#EA4335" stroke-width="2"/>
<path d="M1.58579 23.5858C1.96086 23.2107 2.46957 23 3 23C3.53043 23 4.03914 23.2107 4.41421 23.5858C4.78929 23.9609 5 24.4696 5 25V31C5 31.5304 4.78929 32.0391 4.41421 32.4142C4.03914 32.7893 3.53043 33 3 33C2.46957 33 1.96086 32.7893 1.58579 32.4142C1.21071 32.0391 1 31.5304 1 31V25C1 24.4696 1.21071 23.9609 1.58579 23.5858Z" fill="#EA4335" stroke="#EA4335" stroke-width="2"/>
</g>
<defs>
<clipPath id="clip0_1135_22449">
<rect width="24" height="24" fill="white" transform="translate(0 10)"/>
</clipPath>
</defs>
</svg>
