<svg width="24" height="34" viewBox="0 0 24 34" fill="none" xmlns="http://www.w3.org/2000/svg">
<g clip-path="url(#clip0_2396_17634)">
<path d="M12 16C11.2044 16 10.4413 16.3161 9.87868 16.8787C9.31607 17.4413 9 18.2044 9 19V31C9 31.7956 9.31607 32.5587 9.87868 33.1213C10.4413 33.6839 11.2044 34 12 34C12.7956 34 13.5587 33.6839 14.1213 33.1213C14.6839 32.5587 15 31.7956 15 31V19C15 18.2044 14.6839 17.4413 14.1213 16.8787C13.5587 16.3161 12.7956 16 12 16Z" fill="#BDB9B9"/>
<path d="M21 10C20.2044 10 19.4413 10.3161 18.8787 10.8787C18.3161 11.4413 18 12.2044 18 13V31C18 31.7956 18.3161 32.5587 18.8787 33.1213C19.4413 33.6839 20.2044 34 21 34C21.7956 34 22.5587 33.6839 23.1213 33.1213C23.6839 32.5587 24 31.7956 24 31V13C24 12.2044 23.6839 11.4413 23.1213 10.8787C22.5587 10.3161 21.7956 10 21 10V10ZM22 31C22 31.2652 21.8946 31.5196 21.7071 31.7071C21.5196 31.8946 21.2652 32 21 32C20.7348 32 20.4804 31.8946 20.2929 31.7071C20.1054 31.5196 20 31.2652 20 31V13C20 12.7348 20.1054 12.4804 20.2929 12.2929C20.4804 12.1054 20.7348 12 21 12C21.2652 12 21.5196 12.1054 21.7071 12.2929C21.8946 12.4804 22 12.7348 22 13V31Z" fill="#BDB9B9"/>
<path d="M3 22C2.20435 22 1.44129 22.3161 0.87868 22.8787C0.31607 23.4413 0 24.2044 0 25L0 31C0 31.7956 0.31607 32.5587 0.87868 33.1213C1.44129 33.6839 2.20435 34 3 34C3.79565 34 4.55871 33.6839 5.12132 33.1213C5.68393 32.5587 6 31.7956 6 31V25C6 24.2044 5.68393 23.4413 5.12132 22.8787C4.55871 22.3161 3.79565 22 3 22Z" fill="#BDB9B9"/>
</g>
<path d="M5.58949 3.04972C5.5303 2.85795 5.44863 2.68632 5.34446 2.5348C5.24266 2.38092 5.11955 2.24953 4.97514 2.14062C4.8331 2.03172 4.66974 1.95005 4.48509 1.8956C4.30043 1.83878 4.0992 1.81037 3.88139 1.81037C3.49077 1.81037 3.14276 1.90862 2.83736 2.10511C2.53196 2.30161 2.29167 2.59044 2.11648 2.97159C1.94366 3.35038 1.85724 3.81203 1.85724 4.35653C1.85724 4.90578 1.94366 5.37098 2.11648 5.75213C2.2893 6.13329 2.52959 6.4233 2.83736 6.62216C3.14512 6.81866 3.5026 6.9169 3.9098 6.9169C4.27912 6.9169 4.59872 6.84588 4.86861 6.70384C5.14086 6.56179 5.35038 6.36056 5.49716 6.10014C5.64394 5.83736 5.71733 5.52959 5.71733 5.17685L6.01562 5.22301H4.04119V4.19318H6.99219V5.06676C6.99219 5.68939 6.85961 6.22798 6.59446 6.68253C6.32931 7.13707 5.96473 7.48745 5.50071 7.73366C5.0367 7.97751 4.50402 8.09943 3.9027 8.09943C3.23272 8.09943 2.64441 7.9491 2.13778 7.64844C1.63352 7.34541 1.23935 6.91572 0.955256 6.35938C0.673532 5.80066 0.53267 5.13778 0.53267 4.37074C0.53267 3.78362 0.61553 3.25923 0.78125 2.79759C0.949337 2.33594 1.18371 1.94413 1.48438 1.62216C1.78504 1.29782 2.13778 1.05161 2.54261 0.883523C2.94744 0.713068 3.38778 0.627841 3.86364 0.627841C4.2661 0.627841 4.64134 0.687026 4.98935 0.805398C5.33736 0.921401 5.64631 1.08712 5.91619 1.30256C6.18845 1.51799 6.41217 1.77367 6.58736 2.0696C6.76255 2.36553 6.87737 2.69223 6.93182 3.04972H5.58949ZM9.06616 8V0.727273H11.7934C12.3521 0.727273 12.8209 0.831439 13.1997 1.03977C13.5808 1.24811 13.8685 1.53456 14.0626 1.89915C14.2591 2.26136 14.3574 2.6733 14.3574 3.13494C14.3574 3.60133 14.2591 4.01562 14.0626 4.37784C13.8661 4.74006 13.5761 5.02533 13.1926 5.23366C12.8091 5.43963 12.3368 5.54261 11.7757 5.54261H9.96815V4.45952H11.5981C11.9248 4.45952 12.1923 4.4027 12.4007 4.28906C12.609 4.17543 12.7629 4.01918 12.8623 3.82031C12.9641 3.62145 13.015 3.39299 13.015 3.13494C13.015 2.87689 12.9641 2.64962 12.8623 2.45312C12.7629 2.25663 12.6078 2.10393 12.3971 1.99503C12.1888 1.88376 11.9201 1.82812 11.591 1.82812H10.3836V8H9.06616ZM20.2541 2.72656C20.221 2.41643 20.0813 2.17495 19.8351 2.00213C19.5912 1.82931 19.274 1.7429 18.8834 1.7429C18.6088 1.7429 18.3732 1.78433 18.1767 1.86719C17.9802 1.95005 17.8299 2.0625 17.7257 2.20455C17.6215 2.34659 17.5683 2.50876 17.5659 2.69105C17.5659 2.84257 17.6002 2.97396 17.6689 3.08523C17.7399 3.1965 17.8358 3.29119 17.9565 3.36932C18.0773 3.44508 18.211 3.509 18.3578 3.56108C18.5046 3.61316 18.6526 3.65696 18.8017 3.69247L19.4835 3.86293C19.7581 3.92685 20.0221 4.01326 20.2754 4.12216C20.5311 4.23106 20.7596 4.36837 20.9608 4.53409C21.1644 4.69981 21.3254 4.89986 21.4438 5.13423C21.5621 5.36861 21.6213 5.64323 21.6213 5.9581C21.6213 6.38423 21.5124 6.75947 21.2946 7.08381C21.0768 7.40578 20.7619 7.65791 20.35 7.8402C19.9404 8.02012 19.4445 8.11009 18.8621 8.11009C18.2963 8.11009 17.805 8.02249 17.3884 7.8473C16.9741 7.67211 16.6497 7.41643 16.4153 7.08026C16.1833 6.74408 16.0579 6.33452 16.0389 5.85156H17.3351C17.354 6.10488 17.4322 6.31558 17.5695 6.48366C17.7068 6.65175 17.8855 6.77723 18.1057 6.86009C18.3282 6.94295 18.5768 6.98438 18.8514 6.98438C19.1379 6.98438 19.3888 6.94176 19.6043 6.85653C19.8221 6.76894 19.9925 6.6482 20.1156 6.49432C20.2387 6.33807 20.3015 6.15578 20.3038 5.94744C20.3015 5.75805 20.2458 5.6018 20.1369 5.47869C20.028 5.35322 19.8753 5.24905 19.6788 5.16619C19.4847 5.08097 19.2574 5.00521 18.997 4.93892L18.1696 4.72585C17.5706 4.57197 17.0972 4.33878 16.7491 4.02628C16.4035 3.71141 16.2307 3.29356 16.2307 2.77273C16.2307 2.34422 16.3467 1.96899 16.5787 1.64702C16.8131 1.32505 17.1315 1.07528 17.5339 0.897727C17.9364 0.717803 18.3921 0.627841 18.9011 0.627841C19.4172 0.627841 19.8694 0.717803 20.2577 0.897727C20.6483 1.07528 20.9549 1.32268 21.1774 1.63991C21.4 1.95478 21.5148 2.317 21.5219 2.72656H20.2541Z" fill="#374957"/>
<defs>
<clipPath id="clip0_2396_17634">
<rect width="24" height="24" fill="white" transform="translate(0 10)"/>
</clipPath>
</defs>
</svg>
