<svg width="14" height="14" viewBox="0 0 14 14" fill="none" xmlns="http://www.w3.org/2000/svg">
<circle cx="7" cy="7" r="7" fill="#006AA3"/>
<path d="M5 10.6407V4H7.61997C8.12365 4 8.55274 4.0962 8.90726 4.28859C9.26178 4.47882 9.53199 4.74362 9.7179 5.08301C9.90597 5.42023 10 5.80934 10 6.25032C10 6.69131 9.90489 7.08042 9.71466 7.41764C9.52443 7.75486 9.24881 8.01751 8.88781 8.20558C8.52897 8.39364 8.09447 8.48768 7.58431 8.48768H5.9144V7.36252H7.35733C7.62754 7.36252 7.85019 7.31604 8.02529 7.22309C8.20255 7.12797 8.33441 6.99719 8.42088 6.83074C8.50951 6.66213 8.55383 6.46866 8.55383 6.25032C8.55383 6.02983 8.50951 5.83744 8.42088 5.67315C8.33441 5.5067 8.20255 5.37808 8.02529 5.28729C7.84803 5.19434 7.62322 5.14786 7.35084 5.14786H6.40402V10.6407H5Z" fill="white"/>
</svg>
