<svg width="36" height="36" viewBox="0 0 36 36" fill="none" xmlns="http://www.w3.org/2000/svg">
<g clip-path="url(#clip0_97_264)">
<path d="M18 36C27.9411 36 36 27.9411 36 18C36 8.05887 27.9411 0 18 0C8.05887 0 0 8.05887 0 18C0 27.9411 8.05887 36 18 36Z" fill="url(#paint0_radial_97_264)" fill-opacity="0.67"/>
<path d="M18 32.5C26.0081 32.5 32.5 26.0081 32.5 18C32.5 9.99187 26.0081 3.5 18 3.5C9.99187 3.5 3.5 9.99187 3.5 18C3.5 26.0081 9.99187 32.5 18 32.5Z" fill="#0068A3" stroke="white"/>
<rect width="6.67912" height="0.499475" transform="matrix(0.92388 0.382683 0.382683 -0.92388 11.0583 9.50528)" fill="white"/>
<rect x="19.1408" y="11.3401" width="6.17574" height="0.499475" transform="rotate(-23.5988 19.1408 11.3401)" fill="white"/>
<rect x="12.9979" y="11.9958" width="9.9895" height="11.4879" fill="white"/>
<rect width="9.9895" height="1.9979" transform="matrix(1 0 0 -1 12.9979 25.4816)" fill="#DBDBDB"/>
<rect width="2.99685" height="2.49737" transform="matrix(1 0 0 -1 16.4943 11.9958)" fill="#DBDBDB"/>
<rect width="1.49842" height="4.49527" transform="matrix(1 0 0 -1 21.489 27.979)" fill="white"/>
<rect width="13.9853" height="1.49842" transform="matrix(1 0 0 -1 11 9.49841)" fill="white"/>
<rect width="1.49842" height="4.49527" transform="matrix(1 0 0 -1 12.9979 27.979)" fill="white"/>
<circle cx="14.4963" cy="17.9895" r="0.499475" fill="#0068A3"/>
</g>
<defs>
<radialGradient id="paint0_radial_97_264" cx="0" cy="0" r="1" gradientUnits="userSpaceOnUse" gradientTransform="translate(18 18) rotate(90) scale(18)">
<stop offset="0.802083" stop-color="#3D3D3D" stop-opacity="0.51"/>
<stop offset="0.895833" stop-color="#1D1D1D" stop-opacity="0.56"/>
<stop offset="1" stop-color="#8A8A8A" stop-opacity="0.57"/>
</radialGradient>
<clipPath id="clip0_97_264">
<rect width="36" height="36" fill="white"/>
</clipPath>
</defs>
</svg>
