<svg width="24" height="24" viewBox="0 0 24 24" fill="none" xmlns="http://www.w3.org/2000/svg">
<g clip-path="url(#clip0_1135_23503)">
<path d="M22.4855 10.9753L12.0005 17.2673L1.51549 10.9753C1.28806 10.8388 1.01575 10.7983 0.75845 10.8626C0.50115 10.9269 0.279942 11.0909 0.143488 11.3183C0.00703395 11.5457 -0.0334877 11.818 0.0308373 12.0753C0.0951623 12.3326 0.259065 12.5538 0.486488 12.6903L11.4865 19.2903C11.642 19.3837 11.82 19.4331 12.0015 19.4331C12.1829 19.4331 12.361 19.3837 12.5165 19.2903L23.5165 12.6903C23.7439 12.5538 23.9078 12.3326 23.9721 12.0753C24.0365 11.818 23.9959 11.5457 23.8595 11.3183C23.723 11.0909 23.5018 10.9269 23.2445 10.8626C22.9872 10.7983 22.7149 10.8388 22.4875 10.9753H22.4855Z" fill="#374957"/>
<path d="M22.4855 15.5429L12.0005 21.8339L1.51549 15.5429C1.40288 15.4753 1.27806 15.4306 1.14817 15.4113C1.01828 15.392 0.885849 15.3984 0.758447 15.4303C0.631045 15.4621 0.511164 15.5187 0.405649 15.5969C0.300133 15.6751 0.21105 15.7733 0.143485 15.8859C0.0759197 15.9985 0.0311961 16.1233 0.0118675 16.2532C-0.0074611 16.3831 -0.00101616 16.5155 0.0308343 16.6429C0.0951593 16.9002 0.259062 17.1215 0.486485 17.2579L11.4865 23.8579C11.642 23.9514 11.82 24.0007 12.0015 24.0007C12.1829 24.0007 12.361 23.9514 12.5165 23.8579L23.5165 17.2579C23.7439 17.1215 23.9078 16.9002 23.9721 16.6429C24.0365 16.3856 23.9959 16.1133 23.8595 15.8859C23.723 15.6585 23.5018 15.4946 23.2445 15.4303C22.9872 15.3659 22.7149 15.4064 22.4875 15.5429H22.4855Z" fill="#374957"/>
<path d="M11.9997 14.7733C11.4603 14.773 10.9311 14.6261 10.4687 14.3483L0.484684 8.3573C0.336831 8.2684 0.214494 8.14275 0.129564 7.99258C0.0446343 7.84241 0 7.67282 0 7.5003C0 7.32778 0.0446343 7.15819 0.129564 7.00802C0.214494 6.85785 0.336831 6.7322 0.484684 6.6433L10.4687 0.6523C10.9311 0.374529 11.4603 0.227783 11.9997 0.227783C12.5391 0.227783 13.0683 0.374529 13.5307 0.6523L23.5147 6.6433C23.6625 6.7322 23.7849 6.85785 23.8698 7.00802C23.9547 7.15819 23.9994 7.32778 23.9994 7.5003C23.9994 7.67282 23.9547 7.84241 23.8698 7.99258C23.7849 8.14275 23.6625 8.2684 23.5147 8.3573L13.5307 14.3483C13.0683 14.6261 12.5391 14.773 11.9997 14.7733ZM2.94368 7.5003L11.4997 12.6333C11.6508 12.7237 11.8236 12.7714 11.9997 12.7714C12.1758 12.7714 12.3486 12.7237 12.4997 12.6333L21.0557 7.5003L12.4997 2.3673C12.3486 2.27691 12.1758 2.22917 11.9997 2.22917C11.8236 2.22917 11.6508 2.27691 11.4997 2.3673L2.94368 7.5003Z" fill="#374957"/>
</g>
<defs>
<clipPath id="clip0_1135_23503">
<rect width="24" height="24" fill="white"/>
</clipPath>
</defs>
</svg>
