<svg width="148" height="41" viewBox="0 0 148 41" fill="none" xmlns="http://www.w3.org/2000/svg">
<rect y="3" width="148" height="35" rx="10" fill="#FF9900"/>
<path d="M21 32.4544C20.7348 32.4662 20.4757 32.3721 20.2798 32.193C20.0839 32.0138 19.9673 31.7641 19.9555 31.4989C19.9437 31.2337 20.0377 30.9746 20.2169 30.7787C20.3961 30.5829 20.6458 30.4662 20.911 30.4544C22.8034 30.2812 24.6074 29.5724 26.1115 28.411C27.6156 27.2495 28.7577 25.6835 29.4039 23.8964C30.0501 22.1093 30.1737 20.175 29.7602 18.3202C29.3467 16.4654 28.4133 14.7667 27.0692 13.4233C25.7252 12.0798 24.0261 11.1472 22.1711 10.7346C20.3161 10.3219 18.3819 10.4464 16.595 11.0934C14.8082 11.7405 13.2428 12.8832 12.082 14.3879C10.9212 15.8926 10.2133 17.6968 10.041 19.5894C10.0171 19.8535 9.88928 20.0974 9.68562 20.2673C9.48196 20.4372 9.21914 20.5193 8.95498 20.4954C8.69083 20.4715 8.44697 20.3437 8.27706 20.14C8.10716 19.9364 8.02511 19.6735 8.04898 19.4094C8.32787 16.3327 9.78258 13.4821 12.1103 11.4509C14.438 9.41981 17.4594 8.36465 20.5455 8.50509C23.6316 8.64554 26.5447 9.97078 28.6783 12.205C30.8119 14.4391 32.0017 17.4101 32 20.4994C32.0153 23.4977 30.9014 26.392 28.8799 28.6064C26.8583 30.8208 24.0773 32.1931 21.09 32.4504C21.06 32.4534 21.029 32.4544 21 32.4544Z" fill="white"/>
<path d="M20 14.5C19.7348 14.5 19.4804 14.6054 19.2929 14.7929C19.1054 14.9804 19 15.2348 19 15.5V20.5C19.0001 20.7652 19.1055 21.0195 19.293 21.207L22.293 24.207C22.4816 24.3892 22.7342 24.49 22.9964 24.4877C23.2586 24.4854 23.5094 24.3802 23.6948 24.1948C23.8802 24.0094 23.9854 23.7586 23.9877 23.4964C23.99 23.2342 23.8892 22.9816 23.707 22.793L21 20.086V15.5C21 15.2348 20.8946 14.9804 20.7071 14.7929C20.5196 14.6054 20.2652 14.5 20 14.5Z" fill="white"/>
<path d="M15.6309 34.398C15.8305 34.1672 15.9779 33.896 16.0631 33.603C16.1483 33.3101 16.1693 33.0021 16.1247 32.7003L16.1248 32.7003L16.1239 32.695C15.8585 31.2565 15.1108 29.9534 14.007 28.999C15.1115 28.0454 15.8601 26.7427 16.1263 25.3044L16.1264 25.3044L16.1272 25.299C16.1718 24.9972 16.1508 24.6894 16.0655 24.3965C15.9804 24.1038 15.8331 23.8328 15.6337 23.6021C15.4313 23.3665 15.1804 23.1772 14.8982 23.0474C14.616 22.9176 14.309 22.8503 13.9983 22.85H13.9982L9.00163 22.85L9.00155 22.85C8.69085 22.8502 8.38386 22.9175 8.10158 23.0473C7.81939 23.1771 7.56856 23.3663 7.36625 23.602C7.16683 23.8328 7.01958 24.104 6.93456 24.3969C6.84951 24.6899 6.82873 24.9979 6.87363 25.2997L6.87355 25.2997L6.87446 25.3046C7.13806 26.7426 7.88488 28.0454 8.98834 28.9989C7.88489 29.952 7.13791 31.2544 6.87397 32.6921L6.87388 32.6921L6.87314 32.6971C6.82815 32.9991 6.84893 33.3073 6.93408 33.6005C7.0192 33.8936 7.16664 34.165 7.3663 34.3959C7.56859 34.6315 7.81941 34.8207 8.10158 34.9505C8.38386 35.0803 8.69085 35.1476 9.00155 35.1478H9.00163L13.9982 35.1478L13.9984 35.1478C14.3085 35.1474 14.6148 35.0802 14.8965 34.9508C15.1782 34.8214 15.4286 34.6329 15.6309 34.398ZM15.6309 34.398L15.5174 34.2999M15.6309 34.398C15.631 34.3979 15.631 34.3979 15.6311 34.3978L15.5174 34.2999M15.5174 34.2999C15.7029 34.0854 15.8399 33.8334 15.9191 33.5611C15.9983 33.2889 16.0178 33.0027 15.9763 32.7222L13.9982 34.9978C14.2867 34.9974 14.5717 34.9349 14.8339 34.8145C15.0961 34.694 15.3292 34.5185 15.5174 34.2999ZM10.3094 29.3893C8.97164 30.4486 8.19928 31.6194 8.00982 32.8687M10.3094 29.3893L10.4025 29.5069C10.4025 29.5069 10.4025 29.5069 10.4025 29.5069M10.3094 29.3893C10.3685 29.3425 10.4163 29.283 10.4491 29.2151C10.4819 29.1472 10.499 29.0728 10.499 28.9974C10.499 28.922 10.4819 28.8476 10.4491 28.7797C10.4163 28.7118 10.3685 28.6523 10.3094 28.6055V29.3893ZM8.00982 32.8687L10.4025 29.5069M8.00982 32.8687C7.98858 33.0074 7.99799 33.149 8.03737 33.2836C8.07675 33.4183 8.14516 33.5427 8.23778 33.648C8.33241 33.7579 8.44965 33.8461 8.58148 33.9064C8.71331 33.9668 8.85663 33.9981 9.00163 33.998H13.9982L8.00982 32.8687ZM10.4025 29.5069C9.08404 30.551 8.34016 31.6909 8.15812 32.8912L8.15809 32.8914C8.14017 33.0084 8.14811 33.1279 8.18134 33.2415C8.21457 33.3551 8.27229 33.4601 8.35044 33.549L8.35144 33.5501L8.35143 33.5501C8.43197 33.6437 8.53175 33.7187 8.64395 33.7701C8.75615 33.8215 8.87813 33.848 9.00154 33.848H9.00163H13.9982H13.9983C14.1217 33.8481 14.2437 33.8215 14.3559 33.7701C14.4681 33.7187 14.5679 33.6437 14.6484 33.5502L14.6495 33.549C14.7274 33.4604 14.785 33.3558 14.8182 33.2426C14.8514 33.1294 14.8594 33.0103 14.8417 32.8937L14.8417 32.8934C14.6626 31.6995 13.918 30.5595 12.597 29.5082L12.597 29.5081C12.5206 29.4472 12.4589 29.3699 12.4165 29.282C12.3741 29.194 12.3521 29.0976 12.3521 28.9999C12.3521 28.9022 12.3741 28.8058 12.4165 28.7178C12.4589 28.6298 12.5206 28.5525 12.597 28.4917L12.5971 28.4916C13.9185 27.4402 14.6631 26.3003 14.8417 25.1059L14.8417 25.1057C14.8594 24.9888 14.8511 24.8693 14.8175 24.7559C14.7839 24.6425 14.7258 24.5378 14.6473 24.4493L14.6459 24.4476L14.6459 24.4476C14.5656 24.3544 14.4662 24.2795 14.3544 24.2281C14.2426 24.1767 14.1211 24.15 13.9981 24.1498H9.00163H9.00154C8.87813 24.1497 8.75615 24.1763 8.64395 24.2277C8.53175 24.2791 8.43197 24.3541 8.35143 24.4476L8.35048 24.4487L8.35047 24.4487C8.2725 24.5375 8.21488 24.6423 8.18165 24.7556C8.14842 24.869 8.14039 24.9883 8.15812 25.1051L8.15815 25.1053C8.33871 26.3059 9.08389 27.4447 10.4025 28.4878L10.4025 28.4879C10.4794 28.5487 10.5414 28.6262 10.5841 28.7144C10.6268 28.8026 10.649 28.8994 10.649 28.9974C10.649 29.0954 10.6268 29.1922 10.5841 29.2804C10.5414 29.3686 10.4794 29.4461 10.4025 29.5069ZM12.5517 28.7829C12.5843 28.7153 12.6317 28.6558 12.6905 28.609L14.99 32.8712C14.8036 31.6279 14.0302 30.4571 12.6905 29.3908C12.6317 29.344 12.5843 29.2845 12.5517 29.2169C12.5191 29.1492 12.5021 29.075 12.5021 28.9999C12.5021 28.9248 12.5191 28.8506 12.5517 28.7829ZM13.3388 33.1482H13.3389C13.4454 33.1481 13.5502 33.1219 13.6441 33.0718C13.7381 33.0218 13.8183 32.9494 13.8777 32.8611C13.9371 32.7728 13.974 32.6712 13.985 32.5654C13.996 32.4595 13.9808 32.3525 13.9407 32.2539L13.9409 32.2538L13.9377 32.2469C13.5341 31.3804 12.9225 30.627 12.1573 30.054L11.9047 29.8525L11.9045 29.8523C11.7895 29.7608 11.6469 29.711 11.4999 29.711C11.353 29.711 11.2104 29.7608 11.0954 29.8523L10.8383 30.0568C10.0719 30.6278 9.46012 31.381 9.05849 32.2482L9.05831 32.2482L9.05548 32.2552C9.01571 32.3538 9.00075 32.4607 9.01191 32.5664C9.02306 32.6722 9.06 32.7736 9.11947 32.8617C9.17894 32.9499 9.25914 33.0221 9.35302 33.072C9.44691 33.122 9.55161 33.1481 9.65795 33.1482H9.65801H13.3388ZM12.1645 31.8483H10.8302C11.0338 31.611 11.2573 31.3913 11.4983 31.1918C11.7383 31.3919 11.9611 31.6115 12.1645 31.8483Z" fill="white" stroke="white" stroke-width="0.3"/>
<path d="M46.6611 26L43.5396 15.0909H46.0592L47.8649 22.6708H47.9555L49.9477 15.0909H52.105L54.0918 22.6868H54.1877L55.9935 15.0909H58.513L55.3916 26H53.1437L51.0663 18.8675H50.981L48.909 26H46.6611ZM60.5292 26H58.0576L61.8236 15.0909H64.7959L68.5565 26H66.0849L63.3523 17.5838H63.2671L60.5292 26ZM60.3747 21.712H66.2128V23.5124H60.3747V21.712ZM72.176 15.0909V26H69.8695V15.0909H72.176ZM73.6582 16.9925V15.0909H82.6177V16.9925H79.2778V26H76.998V16.9925H73.6582ZM86.3996 15.0909V26H84.0932V15.0909H86.3996ZM97.4219 15.0909V26H95.4297L90.6836 19.1339H90.6037V26H88.2973V15.0909H90.3214L95.0302 21.9517H95.1261V15.0909H97.4219ZM106.561 18.6172C106.487 18.358 106.382 18.1289 106.247 17.93C106.112 17.7276 105.947 17.5572 105.752 17.4187C105.56 17.2766 105.34 17.1683 105.091 17.0938C104.846 17.0192 104.574 16.9819 104.276 16.9819C103.719 16.9819 103.228 17.1204 102.806 17.3974C102.387 17.6744 102.06 18.0774 101.826 18.6065C101.591 19.1321 101.474 19.7749 101.474 20.5348C101.474 21.2947 101.59 21.9411 101.82 22.4737C102.051 23.0064 102.378 23.413 102.801 23.6935C103.223 23.9705 103.722 24.109 104.297 24.109C104.819 24.109 105.265 24.0167 105.634 23.832C106.007 23.6438 106.291 23.3793 106.487 23.0384C106.686 22.6974 106.785 22.2944 106.785 21.8292L107.254 21.8984H104.441V20.1619H109.006V21.5362C109.006 22.495 108.804 23.3189 108.399 24.0078C107.994 24.6932 107.437 25.2223 106.726 25.5952C106.016 25.9645 105.203 26.1491 104.287 26.1491C103.264 26.1491 102.366 25.9237 101.591 25.4727C100.817 25.0181 100.214 24.3736 99.7803 23.5391C99.3506 22.701 99.1358 21.7067 99.1358 20.5561C99.1358 19.6719 99.2636 18.8835 99.5193 18.1911C99.7785 17.495 100.141 16.9055 100.606 16.4226C101.071 15.9396 101.613 15.5721 102.231 15.32C102.848 15.0678 103.518 14.9418 104.239 14.9418C104.857 14.9418 105.432 15.0323 105.965 15.2134C106.497 15.391 106.97 15.6431 107.382 15.9698C107.797 16.2965 108.136 16.6854 108.399 17.1364C108.662 17.5838 108.83 18.0774 108.905 18.6172H106.561ZM117.972 18.6172C117.898 18.358 117.793 18.1289 117.658 17.93C117.523 17.7276 117.358 17.5572 117.163 17.4187C116.971 17.2766 116.751 17.1683 116.502 17.0938C116.257 17.0192 115.985 16.9819 115.687 16.9819C115.13 16.9819 114.64 17.1204 114.217 17.3974C113.798 17.6744 113.471 18.0774 113.237 18.6065C113.003 19.1321 112.885 19.7749 112.885 20.5348C112.885 21.2947 113.001 21.9411 113.232 22.4737C113.462 23.0064 113.789 23.413 114.212 23.6935C114.634 23.9705 115.133 24.109 115.708 24.109C116.231 24.109 116.676 24.0167 117.045 23.832C117.418 23.6438 117.702 23.3793 117.898 23.0384C118.097 22.6974 118.196 22.2944 118.196 21.8292L118.665 21.8984H115.852V20.1619H120.417V21.5362C120.417 22.495 120.215 23.3189 119.81 24.0078C119.405 24.6932 118.848 25.2223 118.137 25.5952C117.427 25.9645 116.614 26.1491 115.698 26.1491C114.675 26.1491 113.777 25.9237 113.003 25.4727C112.228 25.0181 111.625 24.3736 111.191 23.5391C110.762 22.701 110.547 21.7067 110.547 20.5561C110.547 19.6719 110.675 18.8835 110.93 18.1911C111.19 17.495 111.552 16.9055 112.017 16.4226C112.482 15.9396 113.024 15.5721 113.642 15.32C114.26 15.0678 114.929 14.9418 115.65 14.9418C116.268 14.9418 116.843 15.0323 117.376 15.2134C117.908 15.391 118.381 15.6431 118.793 15.9698C119.208 16.2965 119.547 16.6854 119.81 17.1364C120.073 17.5838 120.242 18.0774 120.316 18.6172H117.972ZM122.15 26V15.0909H126.454C127.281 15.0909 127.986 15.2489 128.568 15.565C129.151 15.8775 129.595 16.3125 129.9 16.87C130.209 17.424 130.364 18.0632 130.364 18.7876C130.364 19.5121 130.207 20.1513 129.895 20.7053C129.582 21.2592 129.13 21.6907 128.537 21.9996C127.947 22.3086 127.233 22.4631 126.395 22.4631H123.652V20.6147H126.022C126.466 20.6147 126.832 20.5384 127.12 20.3857C127.411 20.2294 127.627 20.0146 127.769 19.7411C127.915 19.4641 127.988 19.1463 127.988 18.7876C127.988 18.4254 127.915 18.1094 127.769 17.8395C127.627 17.5661 127.411 17.3548 127.12 17.2056C126.828 17.0529 126.459 16.9766 126.012 16.9766H124.456V26H122.15ZM137.78 18.2283C137.737 17.7987 137.554 17.4648 137.231 17.2269C136.908 16.989 136.469 16.87 135.915 16.87C135.539 16.87 135.221 16.9233 134.962 17.0298C134.703 17.1328 134.504 17.2766 134.365 17.4613C134.23 17.646 134.163 17.8555 134.163 18.0898C134.156 18.2852 134.197 18.4556 134.285 18.6012C134.378 18.7468 134.504 18.8729 134.664 18.9794C134.823 19.0824 135.008 19.1729 135.218 19.2511C135.427 19.3256 135.651 19.3896 135.889 19.4428L136.869 19.6772C137.345 19.7837 137.781 19.9258 138.179 20.1033C138.577 20.2809 138.921 20.4993 139.213 20.7585C139.504 21.0178 139.729 21.3232 139.889 21.6747C140.052 22.0263 140.136 22.4293 140.139 22.8839C140.136 23.5515 139.965 24.1303 139.628 24.6204C139.294 25.1069 138.811 25.4851 138.179 25.755C137.551 26.0213 136.792 26.1545 135.905 26.1545C135.024 26.1545 134.257 26.0195 133.604 25.7496C132.954 25.4798 132.446 25.0803 132.08 24.5511C131.718 24.0185 131.528 23.3597 131.51 22.5749H133.742C133.767 22.9407 133.872 23.2461 134.056 23.4911C134.245 23.7326 134.495 23.9155 134.807 24.0398C135.123 24.1605 135.48 24.2209 135.878 24.2209C136.269 24.2209 136.608 24.1641 136.895 24.0504C137.187 23.9368 137.412 23.7788 137.572 23.5763C137.732 23.3739 137.812 23.1413 137.812 22.8786C137.812 22.6335 137.739 22.4276 137.593 22.2607C137.451 22.0937 137.242 21.9517 136.965 21.8345C136.691 21.7173 136.356 21.6108 135.958 21.5149L134.77 21.2166C133.85 20.9929 133.124 20.6431 132.591 20.1673C132.059 19.6914 131.794 19.0504 131.798 18.2443C131.794 17.5838 131.97 17.0067 132.325 16.5131C132.684 16.0195 133.176 15.6342 133.801 15.3572C134.426 15.0803 135.136 14.9418 135.931 14.9418C136.741 14.9418 137.448 15.0803 138.051 15.3572C138.659 15.6342 139.131 16.0195 139.468 16.5131C139.806 17.0067 139.98 17.5785 139.99 18.2283H137.78Z" fill="white"/>
</svg>
